<?xml version="1.0" encoding="UTF-8"?> <!-- Generator: Adobe Illustrator 25.2.3, SVG Export Plug-In . SVG Version: 6.00 Build 0) --> <svg xmlns="http://www.w3.org/2000/svg" xmlns:xlink="http://www.w3.org/1999/xlink" id="Слой_1" x="0px" y="0px" viewBox="0 0 595.28 345.65" style="enable-background:new 0 0 595.28 345.65;" xml:space="preserve"> <style type="text/css"> .st0{fill:#4B4C47;} </style> <g> <path class="st0" d="M292.36,158.6c0.46,2.94,1.42,5.3,2.88,7.06c1.45,1.77,3.51,2.65,6.18,2.65c2.42,0,4.74-1.04,6.97-3.11 c2.23-2.08,4.09-4.63,5.58-7.67c2.29-0.68,4.27-1.97,5.95-3.86c0.41-0.46,0.81-0.97,1.19-1.5c-0.05,0.3-0.11,0.6-0.17,0.9 c-0.56,1.86-1.02,3.66-1.39,5.39c-0.37,1.73-0.7,3.28-0.98,4.65c-0.28,1.36-0.54,2.88-0.79,4.55h5.02l3.53-18.21 c0.74-2.97,1.56-5.71,2.46-8.22c0.9-2.51,1.8-4.69,2.69-6.55c0.9-1.86,1.8-3.31,2.69-4.37c0.9-1.05,1.72-1.58,2.46-1.58 c0.68,0,1.13,0.36,1.35,1.07c0.22,0.71,0.32,1.5,0.32,2.37c0,0.68-0.11,1.78-0.32,3.3c-0.22,1.52-0.51,3.31-0.88,5.39 c-0.37,2.08-0.81,4.32-1.3,6.74c-0.49,2.42-0.99,4.82-1.49,7.2c-0.49,2.38-0.97,4.71-1.44,6.97c-0.46,2.26-0.88,4.23-1.26,5.9h5.3 c0.43-1.8,1.02-4.44,1.77-7.94c0.74-3.5,1.45-7.2,2.14-11.1c1.55-6.57,3.35-11.58,5.39-15.05c2.04-3.47,3.84-5.2,5.39-5.2 c1.42,0,2.14,1.18,2.14,3.53c0,1.49-0.34,3.38-1.02,5.67c-0.68,2.29-4.3,19.75-4.9,22.53c-2.44,11.4,0.66,17.03,3.68,21.85 c0.6,0.95,2.03,2.8,4.51,4.68c-5.74,4.98-11.08,10.16-16.13,13.16c-9.29,5.52-11.78-0.77-11.78-0.77l-2.95,1.53 c0,0,3.16,7.18,12.92,2.21c6.12-3.12,12.88-9.48,19.49-15.07c3.1,1.99,7.43,3.83,13.28,4.44c10.39,1.08,16.79-0.36,20.09-5.11 l0.04-0.01c0,0,0.13-0.22,0.34-0.58c0.35-0.58,0.67-1.18,0.94-1.85c0,0,0,0,0-0.01c2.23-4.81,5.24-14.81-10.31-11.85l0,0.01 c-4.27,0.71-8.38,2.04-11.89,3.82c-3.99,2.03-7.8,4.85-11.46,7.89c-5.23-5.67-7.89-14.5-6.26-21.76c0.02-0.08,0.04-0.17,0.06-0.25 c0.14-0.58,0.26-1.09,0.37-1.5c0.68-2.63,4.22-20.49,4.9-23.13c0.68-2.63,1.02-4.94,1.02-6.92c0-2.04-0.48-3.55-1.44-4.51 c-0.96-0.96-2.06-1.44-3.3-1.44c-2.6,0-4.78,1.16-6.55,3.48c-1.77,2.32-3.39,5.25-4.88,8.78c0.49-2.85,0.74-5.02,0.74-6.5 c0-1.73-0.32-3.19-0.97-4.37c-0.65-1.18-1.69-1.77-3.11-1.77c-1.18,0-2.23,0.29-3.16,0.88c-0.93,0.59-1.8,1.41-2.6,2.46 c-0.81,1.05-1.58,2.29-2.32,3.72c-0.74,1.43-1.49,2.97-2.23,4.65c0.49-2.48,0.91-4.71,1.25-6.69c0.34-1.98,0.57-3.41,0.7-4.27 h-4.92c-0.31,1.74-0.65,3.69-1.02,5.85c-0.37,2.17-0.76,4.46-1.16,6.88c-0.4,2.42-0.85,4.91-1.35,7.48 c-0.03,0.14-0.05,0.26-0.07,0.4c-0.98,2.46-2.02,4.38-3.13,5.69c-1.21,1.43-2.59,2.51-4.14,3.25c1.24-3.22,2.12-6.6,2.65-10.13 c0.53-3.53,0.59-6.77,0.19-9.71c-0.4-2.94-1.27-5.37-2.6-7.29c-1.33-1.92-3.24-2.88-5.71-2.88c-1.61,0-3.08,0.36-4.41,1.07 c-1.33,0.71-2.49,1.66-3.48,2.83c-0.99,1.18-1.83,2.54-2.51,4.09c-0.68,1.55-1.18,3.19-1.49,4.92l-2.88-0.74 c-1.12,3.96-1.9,7.82-2.37,11.57C291.89,152.31,291.89,155.66,292.36,158.6z M369.43,179.13c4.96-2.52,9.9-4.46,15.21-5.13 c0.53,0.01,1.06,0.05,1.5,0.12c2.34,0.37,3.24,3.21,2.27,6.95c-1.33,4.37-8.25,11.83-21.17,8.7c-2.74-0.66-5.22-2.11-7.35-4.05 C363.16,183.04,366.37,180.68,369.43,179.13z M300.16,141.36c0.15-2.42,0.62-4.68,1.39-6.78c0.77-2.1,1.83-3.86,3.16-5.25 c1.33-1.39,2.86-2.09,4.6-2.09c1.49,0,2.59,0.9,3.3,2.69c0.71,1.8,1.05,4.09,1.02,6.88c-0.03,2.79-0.39,5.84-1.07,9.15 c-0.68,3.31-1.61,6.49-2.79,9.52c-2.48,0-4.43-0.7-5.85-2.09c-1.43-1.39-2.45-3.14-3.07-5.25 C300.24,146.04,300.01,143.78,300.16,141.36z M296.3,149.86c0.31-2.57,0.65-4.85,1.02-6.83c0.06,1.86,0.31,3.66,0.74,5.39 c0.43,1.74,1.12,3.3,2.04,4.69c0.93,1.39,2.1,2.53,3.53,3.39c1.42,0.87,3.13,1.39,5.11,1.58c-0.87,2.17-1.94,3.96-3.21,5.39 c-1.27,1.43-2.65,2.14-4.13,2.14c-1.86,0-3.18-0.8-3.95-2.42c-0.78-1.61-1.24-3.59-1.39-5.95 C295.92,154.9,295.99,152.43,296.3,149.86z"></path> <path class="st0" d="M424.38,154.02c-0.09,1.14-0.14,2.25-0.14,3.33c0,3.34,0.46,5.98,1.4,7.9c0.93,1.92,2.38,2.88,4.37,2.88 c1.24,0,2.4-0.39,3.49-1.16c1.08-0.77,2.09-1.8,3.02-3.07c0.93-1.27,1.78-2.76,2.55-4.46c0.77-1.7,1.5-3.48,2.18-5.34l-0.46,4.46 c0,6.38,1.27,9.57,3.81,9.57c0.99,0,1.95-0.4,2.88-1.21c0.93-0.8,1.93-2.09,3.02-3.86c1.08-1.77,2.26-4.04,3.53-6.83 c1.27-2.79,2.71-6.13,4.32-10.03c0-0.12-0.2-0.31-0.6-0.56c-0.4-0.25-0.76-0.37-1.07-0.37c-2.36,6.26-4.48,10.98-6.36,14.17 c-1.89,3.19-3.36,4.79-4.41,4.79c-0.74,0-1.11-1.11-1.11-3.34c0-0.62,0.03-1.32,0.09-2.09c0.06-0.77,0.15-1.63,0.28-2.56 c0.56-4.4,1.31-9.2,2.28-14.4c0.96-5.2,2.03-10.68,3.21-16.45h-4.18l-1.3,6.5c-0.25-2.11-0.81-3.82-1.67-5.16 c-0.87-1.33-2.23-2-4.09-2c-1.43,0-2.77,0.51-4.04,1.53c-1.27,1.02-2.46,2.37-3.58,4.04c-1.11,1.67-2.14,3.62-3.07,5.85 c-0.93,2.23-1.72,4.55-2.37,6.97c-0.19,0.71-0.35,1.43-0.51,2.15c-1.05,2.66-2.06,5.14-3.02,7.43c-0.96,2.29-1.91,4.29-2.83,5.99 c-0.93,1.7-1.83,3.04-2.69,4c-0.87,0.96-1.67,1.44-2.42,1.44c-0.68,0-1.22-0.26-1.63-0.79c-0.41-0.53-0.6-1.41-0.6-2.65 c0-1.92,0.34-4.18,1.02-6.78c0.68-2.6,1.42-5.28,2.23-8.04c0.8-2.76,1.55-5.45,2.23-8.08c0.68-2.63,1.02-4.94,1.02-6.92 c0-1.92-0.42-3.39-1.25-4.41c-0.84-1.02-2-1.53-3.48-1.53c-1.43,0-2.71,0.37-3.86,1.11c-1.15,0.74-2.2,1.72-3.16,2.93 c-0.96,1.21-1.89,2.62-2.79,4.23c-0.9,1.61-1.75,3.28-2.56,5.02l2.23-12.92h-5.02c-0.19,1.74-0.45,3.7-0.79,5.9 c-0.34,2.2-0.71,4.54-1.11,7.02c-0.39,2.37-0.8,4.8-1.24,7.28c-2.32,6.15-4.42,10.8-6.28,13.95c-1.89,3.19-3.36,4.79-4.41,4.79 c-0.74,0-1.11-1.11-1.11-3.34c0-0.62,0.03-1.32,0.09-2.09c0.06-0.77,0.15-1.63,0.28-2.56c0.56-4.4,1.31-9.2,2.28-14.4 c0.96-5.2,2.03-10.68,3.21-16.45h-4.18l-1.3,6.5c-0.25-2.11-0.81-3.82-1.67-5.16c-0.87-1.33-2.23-2-4.09-2 c-1.43,0-2.77,0.51-4.04,1.53c-1.27,1.02-2.46,2.37-3.58,4.04c-1.11,1.67-2.14,3.62-3.07,5.85c-0.93,2.23-1.72,4.55-2.37,6.97 c-0.65,2.42-1.16,4.85-1.53,7.29c-0.37,2.45-0.56,4.76-0.56,6.92c0,3.34,0.46,5.98,1.39,7.9c0.93,1.92,2.38,2.88,4.37,2.88 c1.24,0,2.4-0.39,3.49-1.16c1.08-0.77,2.09-1.8,3.02-3.07c0.93-1.27,1.78-2.76,2.55-4.46c0.77-1.7,1.5-3.48,2.18-5.34l-0.46,4.46 c0,6.38,1.27,9.57,3.81,9.57c0.99,0,1.95-0.4,2.88-1.21c0.93-0.8,1.93-2.09,3.02-3.86c1.08-1.77,2.26-4.04,3.53-6.83 c0.33-0.72,0.67-1.48,1.02-2.28c-0.43,1.43-0.83,2.85-1.16,4.23c-0.37,1.55-0.7,2.97-0.97,4.27c-0.28,1.3-0.48,2.42-0.6,3.34 c-0.12,0.93-0.22,1.55-0.28,1.86h5.02l3.44-18.4c0.87-3.03,1.84-5.82,2.93-8.36c1.08-2.54,2.17-4.74,3.25-6.6 c1.08-1.86,2.15-3.3,3.21-4.32c1.05-1.02,1.95-1.53,2.69-1.53c1.42,0,2.14,1.15,2.14,3.44c0,1.49-0.34,3.47-1.02,5.95 c-0.68,2.48-1.44,5.11-2.28,7.9c-0.84,2.79-1.6,5.57-2.28,8.36c-0.68,2.79-1.02,5.27-1.02,7.43c0,2.17,0.49,3.81,1.49,4.93 c0.99,1.11,2.26,1.67,3.81,1.67c1.36,0,2.68-0.54,3.95-1.63c1.27-1.08,2.46-2.54,3.58-4.37c1.12-1.83,2.17-3.89,3.16-6.18 C423.87,155.32,424.12,154.65,424.38,154.02z M429.82,148.47c0.62-3.31,1.44-6.46,2.46-9.43c1.02-2.97,2.17-5.48,3.44-7.53 c1.27-2.04,2.55-3.07,3.86-3.07c1.24,0,2.17,0.68,2.79,2.04c0.62,1.36,0.93,3.16,0.93,5.39c0,1.55-0.17,3.32-0.51,5.3 c-0.34,1.98-0.81,4.01-1.39,6.09c-0.59,2.08-1.27,4.1-2.04,6.09c-0.78,1.98-1.58,3.76-2.42,5.34c-0.84,1.58-1.72,2.85-2.65,3.81 c-0.93,0.96-1.8,1.44-2.6,1.44c-0.99,0-1.7-0.6-2.14-1.81c-0.43-1.21-0.65-2.8-0.65-4.79C428.89,154.74,429.2,151.78,429.82,148.47 z M382.3,141.18c-0.34,1.98-0.81,4.01-1.39,6.09c-0.59,2.08-1.27,4.1-2.04,6.09c-0.78,1.98-1.58,3.76-2.42,5.34 c-0.84,1.58-1.72,2.85-2.65,3.81c-0.93,0.96-1.8,1.44-2.6,1.44c-0.99,0-1.7-0.6-2.14-1.81c-0.43-1.21-0.65-2.8-0.65-4.79 c0-2.6,0.31-5.56,0.93-8.87c0.62-3.31,1.44-6.46,2.46-9.43c1.02-2.97,2.17-5.48,3.44-7.53c1.27-2.04,2.55-3.07,3.86-3.07 c1.24,0,2.17,0.68,2.79,2.04c0.62,1.36,0.93,3.16,0.93,5.39C382.81,137.43,382.64,139.19,382.3,141.18z"></path> <path class="st0" d="M461.42,126.08c0,1.18-0.09,2.42-0.28,3.72l2.88,0.46c0.43-1.92,0.65-4.12,0.65-6.6c0-3.1-0.47-6.1-1.4-9.01 l-4.09,1.86c0.74,1.67,1.3,3.27,1.67,4.79C461.23,122.81,461.42,124.41,461.42,126.08z"></path> <path class="st0" d="M468.79,166.35c0.77,0.68,1.66,1.18,2.65,1.49c0.99,0.31,2.01,0.46,3.07,0.46c2.6,0,4.88-0.8,6.83-2.42 c1.95-1.61,3.65-3.56,5.11-5.85c1.45-2.29,2.69-4.71,3.72-7.25c1.02-2.54,1.94-4.74,2.74-6.6c0-0.12-0.22-0.31-0.65-0.56 c-0.43-0.25-0.78-0.37-1.02-0.37c-0.99,2.6-1.95,4.94-2.88,7.01c-0.93,2.08-1.89,3.92-2.88,5.53c0.19-0.62,0.28-1.33,0.28-2.14 c0-2.23-0.4-4.57-1.21-7.02c-0.81-2.45-1.7-4.92-2.69-7.43c-0.99-2.51-1.92-5.02-2.79-7.53c-0.87-2.51-1.36-4.94-1.49-7.29 c0.62-1.98,1.1-4.04,1.44-6.18c0.34-2.14,0.63-4.54,0.88-7.2l-3.9-0.74c-0.37,1.3-0.74,2.73-1.12,4.27 c-0.37,1.55-0.56,3.16-0.56,4.83c0,1.8,0.05,3.3,0.14,4.51c0.09,1.21,0.23,2.34,0.42,3.39c-0.93,2.91-1.92,5.78-2.97,8.59 c-1.05,2.82-1.95,5.28-2.69,7.39c0,0.25,0.28,0.5,0.84,0.74c0.25,0.12,0.53,0.19,0.84,0.19c0.68-1.8,1.44-3.86,2.28-6.18 c0.83-2.32,1.63-4.69,2.37-7.11c0.43,2.36,0.96,4.59,1.58,6.69c0.62,2.11,1.21,4.1,1.77,5.99c0.56,1.89,1.02,3.7,1.39,5.44 c0.37,1.74,0.56,3.44,0.56,5.11c0,2.23-0.54,4.18-1.63,5.85c-1.08,1.67-2.49,2.51-4.23,2.51c-1.36,0-2.42-0.46-3.16-1.39 c-0.74-0.93-1.12-2.04-1.12-3.34l-4.27,0.19c-0.12,1.49,0.05,2.76,0.51,3.81C467.4,164.81,468.02,165.67,468.79,166.35z"></path> <path class="st0" d="M419,225.4c-0.4-0.31-0.76-0.46-1.07-0.46c-1.05,2.66-2.11,5.13-3.16,7.39c-1.05,2.26-2.08,4.23-3.06,5.9 c-0.99,1.67-1.94,2.97-2.83,3.9c-0.9,0.93-1.69,1.39-2.37,1.39c-0.68,0-1.22-0.53-1.63-1.58c-0.4-1.05-0.79-2.32-1.16-3.81 c-0.37-1.49-0.78-3.02-1.21-4.6c-0.43-1.58-1.02-2.89-1.77-3.95c1.67-0.87,3.28-2.15,4.83-3.86c1.55-1.7,2.93-3.54,4.13-5.53 c1.21-1.98,2.18-3.98,2.93-5.99c0.74-2.01,1.12-3.76,1.12-5.25c0-1.36-0.31-2.46-0.93-3.3c-0.62-0.84-1.64-1.25-3.06-1.25 c-1.18,0-2.31,0.42-3.39,1.25c-1.09,0.84-2.17,1.97-3.25,3.39c-1.09,1.43-2.12,3.14-3.11,5.16c-0.99,2.01-1.98,4.17-2.97,6.46 l1.21-5.67c1.8-3.84,3.53-7.57,5.2-11.2c1.67-3.62,3.16-7.01,4.46-10.17c1.3-3.16,2.34-6.04,3.11-8.64c0.77-2.6,1.16-4.77,1.16-6.5 c0-2.97-1.33-4.46-4-4.46c-0.93,0-1.98,0.28-3.16,0.84c-1.18,0.56-2.11,1.64-2.79,3.25c-1.11,2.23-2.2,5.31-3.25,9.24 c-1.05,3.93-2.04,8.3-2.97,13.1c-0.93,4.8-1.83,9.84-2.69,15.1c-0.54,3.26-1.04,6.4-1.53,9.49c-1.04,2.73-2.16,4.81-3.35,6.22 c-1.21,1.43-2.59,2.51-4.14,3.25c1.24-3.22,2.12-6.6,2.65-10.13c0.53-3.53,0.59-6.77,0.19-9.71c-0.4-2.94-1.27-5.37-2.6-7.29 c-1.33-1.92-3.24-2.88-5.71-2.88c-1.61,0-3.08,0.36-4.41,1.07c-1.33,0.71-2.49,1.66-3.48,2.83c-0.99,1.18-1.83,2.54-2.51,4.09 c-0.68,1.55-1.18,3.19-1.49,4.92l-2.88-0.74c-0.8,2.83-1.42,5.61-1.89,8.33c-1.05,2.75-2.17,4.84-3.36,6.25 c-1.21,1.43-2.59,2.51-4.14,3.25c1.24-3.22,2.12-6.6,2.65-10.13c0.53-3.53,0.59-6.77,0.19-9.71c-0.4-2.94-1.27-5.37-2.6-7.29 c-1.33-1.92-3.24-2.88-5.71-2.88c-1.61,0-3.08,0.36-4.41,1.07c-1.33,0.71-2.49,1.66-3.48,2.83c-0.99,1.18-1.83,2.54-2.51,4.09 c-0.68,1.55-1.18,3.19-1.49,4.92l-2.88-0.74c-0.8,2.84-1.42,5.61-1.89,8.34c-1.11,2.88-2.37,5.09-3.78,6.62 c-1.43,1.55-2.97,2.6-4.65,3.16c0.87-2.35,1.52-4.82,1.95-7.39c0.43-2.57,0.65-5.06,0.65-7.48c0-2.1-0.17-4.09-0.51-5.95 c-0.34-1.86-0.88-3.48-1.62-4.88c-0.74-1.39-1.69-2.51-2.84-3.34c-1.15-0.84-2.49-1.25-4.04-1.25c-1.8,0-3.41,0.45-4.83,1.35 c-1.43,0.9-2.66,2.09-3.72,3.58l0.81-4.25c1.08-1.06,2.04-2.17,2.85-3.22c7.09-8.16,10.64-15.74,10.64-22.73 c0-1.8-0.48-3.17-1.44-4.13c-0.96-0.96-2.06-1.44-3.3-1.44c-1.05,0-2.06,0.34-3.02,1.02c-0.96,0.68-1.78,1.74-2.46,3.16 c-1.18,2.6-2.4,5.95-3.67,10.03c-1.27,4.09-2.42,8.49-3.44,13.19c-0.3,1.37-0.55,2.77-0.82,4.16c-1.44,0.32-3.11,0.53-4.64,0.49 c-2.29-0.07-4.34-0.59-6.13-1.77c-1.8-1.18-3.97-4.61-5.05-6.85c-1.33-2.73-9.96-23.46-11.04-26.37c-1.09-2.91-2.2-5.67-3.35-8.27 c-1.15-2.6-2.38-4.95-3.72-7.06c-1.33-2.1-2.8-3.75-4.41-4.92c4.21-0.62,7.97-2,11.29-4.14c3.31-2.14,6.13-4.77,8.45-7.9 c2.32-3.13,4.09-6.56,5.3-10.31c1.21-3.75,1.81-7.54,1.81-11.38c0-3.96-0.68-7.85-2.04-11.66c-1.36-3.81-3.49-7.2-6.36-10.17 c-2.88-2.97-6.52-5.36-10.92-7.15c-4.4-1.8-9.66-2.69-15.79-2.69c-6.63,0-12.39,1.04-17.28,3.11c-4.89,2.08-8.97,4.78-12.22,8.13 c-3.25,3.34-5.67,7.11-7.25,11.29c-1.58,4.18-2.37,8.38-2.37,12.59c0,3.9,0.57,7.42,1.72,10.55c1.15,3.13,2.74,5.79,4.79,7.99 c2.04,2.2,4.51,3.89,7.39,5.06c2.88,1.18,6.06,1.76,9.52,1.76c1.8,0,3.44-0.19,4.93-0.56c1.49-0.37,2.85-0.9,4.09-1.58l-2.04-4.55 c-1.18,0.68-2.34,1.16-3.48,1.44c-1.15,0.28-2.52,0.42-4.14,0.42c-2.66,0-5.1-0.46-7.29-1.39c-2.2-0.93-4.09-2.29-5.67-4.09 c-1.58-1.8-2.82-4.01-3.72-6.64c-0.9-2.63-1.35-5.68-1.35-9.15c0-3.78,0.68-7.54,2.04-11.29c1.36-3.75,3.44-7.12,6.22-10.13 c2.79-3,6.3-5.45,10.55-7.34c4.24-1.89,9.25-2.83,15.01-2.83c5.39,0,10,0.81,13.84,2.42c3.84,1.61,6.98,3.75,9.43,6.41 c2.45,2.66,4.26,5.71,5.43,9.15c1.18,3.44,1.77,6.95,1.77,10.55c0,3.66-0.54,7.26-1.63,10.82c-1.08,3.56-2.65,6.8-4.69,9.71 c-2.04,2.91-4.52,5.36-7.43,7.34c-2.91,1.98-6.16,3.19-9.76,3.62c0.43-2.79,0.84-5.65,1.21-8.59c0.37-2.94,0.74-5.93,1.12-8.97 c0.87-7.37,2.01-13.53,3.44-18.49c1.42-4.95,2.94-9.01,4.55-12.17c-0.87-0.31-1.77-0.62-2.7-0.93c-0.93-0.31-1.83-0.62-2.69-0.93 c-2.04,4.09-3.75,9.14-5.11,15.15c-1.36,6.01-2.48,12.95-3.35,20.81l-1.67,13.84c-0.19,0-0.4-0.05-0.65-0.14 c-0.25-0.09-0.53-0.14-0.84-0.14l-0.56,5.02c0.25,0.06,0.49,0.09,0.74,0.09c0.25,0,0.49,0,0.74,0c-1.86,11.4-4.4,19.93-7.62,25.6 c-3.22,5.67-7.34,8.5-12.36,8.5c-1.86,0-3.56-0.31-5.11-0.93c-1.55-0.62-2.85-1.47-3.9-2.55c-1.05-1.08-1.87-2.37-2.46-3.86 c-0.59-1.49-0.88-3.1-0.88-4.83c0-1.36,0.22-2.68,0.65-3.95c0.43-1.27,1.04-2.4,1.81-3.39c0.77-0.99,1.69-1.81,2.74-2.46 c1.05-0.65,2.2-1.01,3.44-1.07c0-0.8-0.02-1.61-0.05-2.42c-0.03-0.8-0.05-1.61-0.05-2.42c-1.92,0.12-3.66,0.6-5.2,1.44 c-1.55,0.84-2.88,1.95-3.99,3.34c-1.12,1.39-1.98,2.97-2.6,4.74c-0.62,1.77-0.93,3.58-0.93,5.44c0,2.17,0.36,4.2,1.07,6.09 c0.71,1.89,1.77,3.55,3.16,4.97c1.39,1.42,3.11,2.55,5.16,3.39c2.04,0.84,4.43,1.25,7.15,1.25c3.41,0,6.43-0.74,9.06-2.23 c2.63-1.49,4.95-3.73,6.97-6.74c2.01-3.01,3.75-6.8,5.2-11.38c1.45-4.58,2.71-9.97,3.76-16.17c1.67,1.92,3.19,4.52,4.55,7.8 c1.36,3.28,2.72,6.83,4.09,10.64c1.36,3.81,7.47,19.45,9.4,23.08c1.79,3.39,5.77,10.17,8.74,12.19c2.97,2.01,5.77,3.22,9.92,3.22 c1.21,0,2.4-0.31,3.54-0.8c-0.38,2.17-0.73,4.36-1.04,6.58c-0.68,4.92-1.02,9.52-1.02,13.8c0,2.66,0.15,5.14,0.47,7.43 c0.31,2.29,0.82,4.27,1.53,5.95c0.71,1.67,1.63,2.97,2.74,3.9c1.12,0.93,2.51,1.39,4.18,1.39c2.48,0,4.68-0.98,6.6-2.93 c1.92-1.95,3.56-4.44,4.92-7.48c2.35-0.56,4.51-1.86,6.46-3.9c0.86-0.91,1.65-1.94,2.37-3.07c-0.21,2.8-0.14,5.36,0.23,7.66 c0.46,2.94,1.42,5.3,2.88,7.06c1.45,1.77,3.51,2.65,6.18,2.65c2.42,0,4.74-1.04,6.97-3.11c2.23-2.08,4.09-4.63,5.58-7.67 c2.29-0.68,4.27-1.97,5.95-3.86c0.66-0.74,1.26-1.6,1.84-2.53c-0.19,2.72-0.11,5.21,0.25,7.46c0.46,2.94,1.42,5.3,2.88,7.06 c1.45,1.77,3.51,2.65,6.18,2.65c2.42,0,4.74-1.04,6.97-3.11c2.23-2.08,4.09-4.63,5.58-7.67c2.29-0.68,4.27-1.97,5.95-3.86 c0.54-0.61,1.05-1.31,1.54-2.05c-0.11,0.47-0.23,0.99-0.38,1.63c-0.22,0.93-0.45,1.98-0.7,3.16c-0.25,1.18-0.48,2.45-0.7,3.81 c-0.22,1.36-0.36,2.69-0.42,4l-0.37,3.44h4.74l2.42-16.54c0.12,0,0.25,0.02,0.37,0.05c0.12,0.03,0.25,0.05,0.37,0.05 c0.19,0,0.37-0.01,0.56-0.05c0.19-0.03,0.37-0.05,0.56-0.05c0.49,1.18,0.91,2.73,1.26,4.65c0.34,1.92,0.76,3.79,1.25,5.62 c0.49,1.83,1.18,3.41,2.04,4.74c0.87,1.33,2.08,2,3.62,2c1.24,0,2.45-0.54,3.62-1.63c1.18-1.08,2.31-2.52,3.39-4.32 c1.08-1.8,2.15-3.84,3.21-6.13c1.05-2.29,2.04-4.65,2.97-7.06c0.43-0.99,0.77-1.89,1.02-2.7C419.6,225.9,419.4,225.71,419,225.4z M401.39,196.64c0.74-3.81,1.49-7.15,2.23-10.03c0.74-2.88,1.49-5.17,2.23-6.88c0.74-1.7,1.49-2.56,2.23-2.56 c0.62,0,0.93,0.71,0.93,2.14c-0.13,1.86-0.57,4.12-1.35,6.78c-0.78,2.66-1.67,5.39-2.7,8.18c-1.02,2.79-2.08,5.47-3.16,8.04 c-1.08,2.57-1.97,4.69-2.65,6.37C399.9,204.46,400.65,200.45,401.39,196.64z M312.89,192c0.77-2.94,1.55-5.51,2.32-7.71 c0.77-2.2,1.5-3.95,2.18-5.25c0.68-1.3,1.27-1.95,1.77-1.95c0.74,0,1.12,0.71,1.12,2.14c0,3.9-0.92,7.73-2.74,11.47 c-1.83,3.75-4.1,7.29-6.83,10.64C311.39,198.05,312.12,194.94,312.89,192z M315.54,243.19c-1.24,1.39-2.6,2.09-4.09,2.09 c-1.67,0-2.88-1.14-3.62-3.44c-0.74-2.29-1.11-5.3-1.11-9.01c0-0.68,0.01-1.39,0.05-2.14c0.03-0.74,0.08-1.52,0.14-2.32 c0.87,2.48,2.26,4.59,4.18,6.32c1.92,1.74,4.46,2.76,7.62,3.07C317.83,239.99,316.78,241.8,315.54,243.19z M321.25,228.19 c-0.4,2.54-0.94,4.93-1.63,7.16c-2.17-0.06-4.01-0.53-5.53-1.39c-1.52-0.87-2.74-1.97-3.67-3.3c-0.93-1.33-1.61-2.83-2.04-4.51 c-0.43-1.67-0.65-3.38-0.65-5.11c0-1.73,0.19-3.42,0.56-5.06c0.37-1.64,0.91-3.11,1.63-4.41c0.71-1.3,1.55-2.34,2.51-3.11 c0.96-0.77,2.03-1.16,3.21-1.16c1.11,0,2.06,0.36,2.83,1.07c0.77,0.71,1.41,1.69,1.9,2.93c0.49,1.24,0.87,2.68,1.12,4.32 c0.25,1.64,0.37,3.39,0.37,5.25C321.86,223.2,321.66,225.65,321.25,228.19z M345.22,243.15c-1.27,1.43-2.65,2.14-4.13,2.14 c-1.86,0-3.18-0.8-3.95-2.42c-0.78-1.61-1.24-3.59-1.39-5.95c-0.16-2.35-0.08-4.82,0.23-7.39c0.31-2.57,0.65-4.85,1.02-6.83 c0.06,1.86,0.31,3.66,0.74,5.39c0.43,1.74,1.12,3.3,2.04,4.69c0.93,1.39,2.1,2.53,3.53,3.39c1.42,0.87,3.13,1.39,5.11,1.58 C347.56,239.93,346.49,241.72,345.22,243.15z M352.24,225.63c-0.68,3.31-1.61,6.49-2.79,9.52c-2.48,0-4.43-0.7-5.85-2.09 c-1.43-1.39-2.45-3.14-3.07-5.25c-0.62-2.1-0.85-4.37-0.7-6.78c0.15-2.42,0.62-4.68,1.39-6.78c0.77-2.1,1.83-3.86,3.16-5.25 c1.33-1.39,2.86-2.09,4.6-2.09c1.49,0,2.59,0.9,3.3,2.69c0.71,1.8,1.05,4.09,1.02,6.88C353.28,219.27,352.92,222.32,352.24,225.63z M374.86,243.15c-1.27,1.43-2.65,2.14-4.13,2.14c-1.86,0-3.18-0.8-3.95-2.42c-0.78-1.61-1.24-3.59-1.39-5.95 c-0.16-2.35-0.08-4.82,0.23-7.39c0.31-2.57,0.65-4.85,1.02-6.83c0.06,1.86,0.31,3.66,0.74,5.39c0.43,1.74,1.12,3.3,2.04,4.69 c0.93,1.39,2.1,2.53,3.53,3.39c1.42,0.87,3.13,1.39,5.11,1.58C377.2,239.93,376.13,241.72,374.86,243.15z M381.88,225.63 c-0.68,3.31-1.61,6.49-2.79,9.52c-2.48,0-4.43-0.7-5.85-2.09c-1.43-1.39-2.45-3.14-3.06-5.25c-0.62-2.1-0.85-4.37-0.7-6.78 c0.15-2.42,0.62-4.68,1.39-6.78c0.77-2.1,1.83-3.86,3.16-5.25c1.33-1.39,2.86-2.09,4.6-2.09c1.49,0,2.59,0.9,3.3,2.69 c0.71,1.8,1.05,4.09,1.02,6.88C382.91,219.27,382.56,222.32,381.88,225.63z M398.6,227.72c-0.62-0.37-1.43-0.56-2.42-0.56 l0.47-2.42c2.48-5.39,4.68-9.49,6.6-12.31c1.92-2.82,3.56-4.23,4.92-4.23c0.87,0.06,1.3,0.71,1.3,1.95c0,1.05-0.34,2.43-1.02,4.14 c-0.68,1.7-1.55,3.42-2.6,5.16c-1.05,1.73-2.21,3.36-3.48,4.88C401.09,225.85,399.84,226.98,398.6,227.72z"></path> <path class="st0" d="M309.71,99.16c2.8-1.73,2.26-5.46-0.02-7.28c3.53-0.02,6.36,3.73,8.06,6.62c1.74,2.94,3.39,5.88,6.37,7.71 c0.31,0.19,5.13-0.53,7.3-0.73c0.11-0.01,0.21-0.05,0.29-0.1c0.21-0.04,0.37-0.18,0.46-0.36c0.11-0.14,0.16-0.32,0.08-0.55 c-0.55-1.56-1.11-3.12-1.66-4.67c2.11,2.81,3.7,5.97,5.41,9.03c3.08,5.51,7,10.91,13.29,12.94c1.17,0.38,2.29,0.58,0.84-0.76 c-1.61-1.5-2.53-3.86-2.82-5.94c0.76,0.91,1.61,1.75,2.56,2.5c2.24,1.76,4.81,2.79,7.62,3.2c3.53,0.51,7.8,0.38,10.38,3.23 c1.19,1.12,0.81,0.46,0.8-0.26c-0.05-2.65-0.78-5.18-2.04-7.4l4.59-1.62c3.26-0.87,6.9-2.36,10.21-1.28 c0.29,0.1,0.79,0.84,0.54-0.47c-0.32-1.7-1.28-3.18-2.61-4.19c1.49-0.66,2.96-1.36,4.45-2c3.74-1.62,7.66-3.35,11.69-4.27 c1.43,0.64,2.96,1.13,4.5,1.54c-2.15,0.59-3.98,2.16-4.56,4.58c-0.99,4.16,2.75,9.43,7.37,7.63c1.72-0.67,3-2.48,2.65-4.37 c-0.32-1.71-1.97-3.07-3.73-2.78c-3.74,0.62-2.99,5.61,0.03,6.11c-2.26,0.54-4.51-1.48-5.04-3.67c-0.53-2.18,0.33-4.39,2.23-5.6 c3.58-2.27,8.92-0.31,12.33,1.41c2.38,1.19,5.84,3.85,5.86,6.87c0,0.12,0.04,0.24,0.12,0.35c0.07,0.11,8.31,4.98,8.37,4.98 c0.34,0.23,0.86,0.18,0.95-0.33c0.29-1.6,0.58-3.2,0.87-4.8c1.6,1.82,3.74,4.26,4.93,6.42c0.13,0.53,0.31,0.24,0.52-0.43 c1.15-3.55,1.1-7.24-0.07-10.72c1.66,0.91,3.55,1.23,5.48,0.77c2.31-0.54,5.03-2.61,7.55-2.76c0,0,2.72-0.04,4.36,0.45 s-0.52-1.72-2.25-2.44c0,0,2.58-0.81,4.8-2.07c2.22-1.26,4.15-3.06,5.54-5.31c0.38-0.62,1.05-0.99-0.55-0.63 c-3.67,1.13-7.27-1.17-10.57-2.53c-2.63-1.09-5.36-1.51-8.18-1.15c-1.19,0.15-2.36,0.44-3.48,0.83c1.32-1.64,3.32-3.2,5.47-3.66 c1.94-0.42,0.86-0.81-0.33-1.09c-6.02-1.38-11.76,0.84-16.95,3.71c-0.08-0.14-0.16-0.28-0.25-0.45 c-3.37-6.09-10.29-9.55-17.12-8.98c-3.11,0.26-6.02,1.26-8.66,2.75c-0.12,0.02-0.23,0.07-0.34,0.17c-0.02,0.02-0.03,0.03-0.05,0.05 c-0.83,0.49-1.62,1.04-2.4,1.62c-1.35-2.24-3.66-2.75-5.58-1.98c-1.53-6.28-6.33-11.67-13.32-12.17c-5.12-0.36-10.06,3-9.37,8.55 c0.79,6.31,6.86,9.19,12.11,11.31c1.95,5.5-0.37,12.17-6.49,14.66c-2.01,0.81-4.31,1.09-6.4,0.44c-2.58-0.8-4.97-3.76-3.62-6.54 c0.09-0.18,0.19-0.35,0.31-0.51c-0.77,2.47,1.38,5.6,4.61,4.34c4.55-1.78,0.86-8.68-3.55-6.78c-4.21,1.82-3.48,6.38-0.83,9.01 c-2.09-1.42-3.37-4.58-5.08-6.23c-1.43-1.38-3.22-2.07-5.11-2.14c2.79-2.39,4.71-5.53,5.54-9.17c0.16-0.68,0.15-1.03-0.23-0.63 c-2.12,1.25-5.21,2.24-7.52,2.99c0.57-1.52,1.14-3.05,1.71-4.57c0.18-0.49-0.24-0.79-0.65-0.77c-0.06-0.02-9.62-0.06-9.75,0 c-0.12,0.05-0.22,0.13-0.28,0.24c-4.67,4.92-11.85,2.6-17.39,0.76c-4.1-1.36-8.48-2.55-12.65-1.52c-3.5,0.21-7.01,1.4-8.39,4.77 C301.19,97.37,305.42,101.8,309.71,99.16z M418.33,113.76c-1.44-6.19-6.49-8.13-12.05-9.53c8.23,0.34,15.41,5.49,18.29,13.28 L418.33,113.76z M406.35,98.81c0.12-0.06,0.25-0.11,0.37-0.17c2.78-1.42,5.62-3.26,8.76-2.67l-4.81,3.98 c-1,0.29-2.02,0.5-3.03,0.66C407.31,99.94,406.87,99.34,406.35,98.81z M416.16,104.6c6.92,1.02,14.45,4.72,14.81,12.27 C427.28,111.47,422.14,107.22,416.16,104.6z M443.1,107.07c-3.78,1.4-7.18,3.84-10.92,0.64c-0.51-0.44-1.24,0.08-1.12,0.58 c-0.04,0.14-0.04,0.29,0.03,0.45c1.22,2.76,1.61,5.71,1.19,8.62c-0.01-8.19-7.61-12.49-14.99-13.85c6.03-0.48,12.14-0.98,18.1-0.12 c3.62,0.52,7.32,1.55,10.69,3.11C445.08,106.49,444.08,106.71,443.1,107.07z M444.36,104.34c-4.65-1.77-9.64-2.57-14.61-2.72 c4.19-2.57,9.27-3.57,14.11-2.43c3.49,0.82,7.49,2.87,10.87,1.44C451.94,103.18,448.23,104.54,444.36,104.34z M441.98,95.17 c4.52,0.28,8.5,3.73,12.93,3.9c-2.36,1.47-5.32,0.56-7.88-0.27c-2.22-0.72-4.4-1.29-6.75-1.36c-3.68-0.1-7.29,0.84-10.47,2.64 c1.21-1.32,2.65-2.41,4.23-3.22c0.06-0.02,0.12-0.04,0.17-0.08C436.59,95.6,439.27,95.01,441.98,95.17z M437.75,91.35 c-1.84,1-3.36,2.52-4.38,4.43c-2.56,1.34-4.76,3.33-6.31,5.82c-4.86,0.07-9.69,0.7-14.53,0.97 C421.2,100.29,428.67,92.69,437.75,91.35z M432.52,91.43c-3.5,1.31-6.76,3.26-10.04,5.17c-3.98,2.33-8.3,4.62-12.86,5.16 c3.38-0.77,6.62-2.19,9.82-4.03C423.54,95.39,427.89,92.59,432.52,91.43z M422.99,94.2c-0.12,0.07-0.25,0.13-0.37,0.2 c-3.03,1.75-6.02,3.66-9.26,4.99c1.27-1.06,2.55-2.11,3.82-3.17c0.19-0.15,0.24-0.34,0.21-0.51c0.01-0.2-0.05-0.4-0.21-0.54 c-0.04-0.09-0.11-0.17-0.2-0.23c-0.34-0.25-0.78-0.58-1.23-0.93C418.16,93.08,420.77,92.71,422.99,94.2z M414.51,93.06 c-0.45,0.22-0.9,0.45-1.35,0.7c-3.15,1.71-6.32,3.81-9.65,3.01c-0.11-0.03-0.22-0.02-0.31,0c-0.79-0.44-1.66-0.74-2.55-0.94 c-0.86-0.2-1.75-0.29-2.67-0.23c-0.51,0.03-1.03,0.09-1.55,0.21c-0.46,0.11-0.89,0.26-1.31,0.43c-0.06,0.02-0.13,0.04-0.19,0.06 c0.02-0.02,0.05-0.04,0.08-0.06c1.8-1.53,3.65-3,5.66-4.23c6.1-3.72,13.51-3.98,19.46-0.12C418.24,91.53,416.37,92.15,414.51,93.06 z M394.54,93.71c0.27-0.68,0.57-1.34,0.93-1.98c0.7-1.23,1.58-2.38,2.64-3.41c2.52-1.45,5.31-2.42,8.23-2.67 c4.69-0.4,9.48,1.14,12.89,4.27c-5.15-2.66-11.27-2.9-16.68-0.38c-3.17,1.47-5.93,3.65-8.58,5.91 C394.12,94.85,394.32,94.28,394.54,93.71z M391.59,100.08c0.24-0.21,0.48-0.42,0.72-0.62c0.53-0.43,1.07-0.81,1.63-1.16 c0.45-0.28,0.92-0.52,1.39-0.73c0.88-0.38,1.79-0.63,2.75-0.71c0.76-0.06,1.55-0.02,2.36,0.16c1.22,0.27,2.3,0.81,3.22,1.55 c0.36,0.29,0.7,0.61,1.01,0.96c0.36,0.4,0.69,0.83,0.98,1.3c0.16,0.25,0.3,0.51,0.44,0.78c-4.12-1.07-8.12-0.8-12.06,0.16 c-2.47,0.6-4.91,1.45-7.33,2.43C388.43,103.03,389.95,101.5,391.59,100.08z M374.67,88.39c-0.68-0.48-0.89,0.21-0.22,0.68 c1.54,1.08,2.7,2.44,3.52,3.93c-2.69-1.1-5.42-2.37-7.44-4.48c-2.32-2.42-3.75-6.41-1.79-9.48c1.81-2.84,5.79-3.38,8.83-2.71 c2.93,0.65,5.53,2.4,7.46,4.67c1.66,1.96,2.71,4.21,3.22,6.57c0.63,2.92,0.42,6-0.57,8.9c-0.28,0.83-0.61,1.65-1.02,2.44 c-0.64,1.25-1.42,2.43-2.32,3.52c-0.7,0.84-1.49,1.61-2.34,2.3c-0.79,0.65-1.73,1.25-2.45,1.94c3.44-3.31,6.14-7.33,6.9-12.17 c0.01-0.09,0.01-0.18,0.02-0.27c0.19-1.41,0.16-2.79-0.07-4.13c-0.68-3.88-3.05-7.31-6.71-9.42c-0.72-0.41-0.93,0.27-0.22,0.68 c4.99,2.88,6.76,8.79,5.46,14.21c-0.68,2.84-2.07,5.36-3.85,7.58c1.96-4.5,3.12-9.41,1.95-14.28c-1.08-4.5-4.65-9.73-9.68-10.23 c-1.89-0.19-4.09,0.76-4.43,2.82c-0.3,1.85,1.24,3.62,3.13,3.48c1.7-0.13,3.21-1.79,2.67-3.53c-0.34-1.09-1.63-1.61-2.68-1.26 c-0.41,0.14-0.92,0.5-0.79,1.01c0.22,0.89,1.56,0.04,1.88,0.86c0.33,0.86-1.31,1.38-1.89,1.08c-0.6-0.31-0.93-1.04-0.83-1.71 c0.43-3.02,4.33-1.71,5.82-0.53c2.67,2.12,4.61,4.74,5.48,8.07c1.06,4.08,0.33,8.22-1.14,12.1 C381.36,96.24,378.86,91.34,374.67,88.39z M334.98,104.35c-1.81-3.22-3.87-6.1-6.38-8.49c3.64,2.8,6.18,6.98,8.41,11.02 c1.83,3.32,3.64,6.66,5.98,9.58C339.6,113.09,337.3,108.46,334.98,104.35z M347.43,119.2c-7.11-5.8-9.64-16.15-15.93-22.54 c4.03,2.71,7.85,5.72,11.99,8.27c0.06,2.94,0.93,5.77,2.44,8.23C345.84,115.32,346.36,117.4,347.43,119.2z M353.02,118.08 c-2.41-1.24-4.41-3.12-5.84-5.35c-0.02-0.06-0.06-0.11-0.1-0.16c-0.94-1.51-1.62-3.18-1.99-4.94c1.81,3.17,4.44,5.83,7.65,7.63 c2.04,1.15,4.22,1.77,6.49,2.29c2.62,0.59,5.63,1.33,6.91,3.8C362.24,119.22,357.05,120.15,353.02,118.08z M366.77,119.92 c-2.17-2.96-6.66-3.24-10.07-4.32c-4.74-1.5-8.59-4.95-10.88-9.3c4.35,2.41,9.04,4.28,13.95,5.14 C363.18,113.23,365.68,116.3,366.77,119.92z M371.86,111.38c0.39-0.08,0.77-0.17,1.16-0.27c1.69-0.44,3.31-1.05,4.92-1.73 c1.18,0.66,2.07,1.72,2.54,3.01c-5.18-1.18-10.02,2.23-15.24,1.89c0,0,0,0-0.01,0c-0.73-0.91-1.57-1.74-2.5-2.47 C365.72,112.08,368.86,112,371.86,111.38z M350.6,100.86c-0.14,0.1-0.22,0.23-0.26,0.37c-0.35,0.37,0,1.19,0.67,1.07 c4.85-0.83,6.52,3,9.06,6.14c0.65,0.81,1.41,1.51,2.25,2.02c-3.69-0.38-7.39-1.39-10.77-2.8c-5.56-2.32-10.55-5.87-15.49-9.37 c7.03,2.61,15.76,2.81,19.97-4.23C354.9,96.78,353.06,99.11,350.6,100.86z M354.67,93.81c-4.17,6.3-12.54,5.63-19.01,2.96 C342.15,97.58,348.73,96.56,354.67,93.81z M342.22,90.01l7.28-0.03c-6.45,5.22-15.26,5.97-22.51,2.05 C332.49,93.68,337.81,94.6,342.22,90.01z M328.58,97.96l2.09,5.88c-3-1.11-4.5-4.14-6.16-6.78c-1.31-2.09-2.88-3.87-4.95-5.21 C322.95,93.16,326.03,95.23,328.58,97.96z M320.86,94.49c3.07,2.91,4.41,7.78,8.03,9.95c-1.44,0.13-2.87,0.26-4.31,0.39 c-0.07,0.01-0.13,0.02-0.18,0.04c-4.47-3.18-7.49-13.14-13.35-14.26C314.64,90.64,318.2,91.96,320.86,94.49z"></path> <path class="st0" d="M550.35,172.22c-3.38-4.34-10.34-2.62-10.15,3.26c0.12,3.85,4.23,5.47,7.4,4.21 c-0.71,1.25-1.84,2.13-3.17,2.77c-5.44-4.33-5.1-7.23-12.96-9.12c-0.9-0.12-1.83-0.14-2.75-0.04c-2.23,0.24-4.09,1.25-5.97,2.43 c-2.32,1.46-4.94,3.35-7.69,2.15c-1.11-0.48-0.81,0.67-0.74,0.86c0.53,1.34,1.21,2.58,2.01,3.75c-0.41-0.17-0.82-0.35-1.22-0.55 c-2.2-1.08-4.24-2.47-6.05-4.12c-0.37-0.33-0.61-0.76-0.88-0.28c-0.01,0.01-0.12,0.15-0.14,0.22c0,0.01-1.41,2.16-4.03,1.88 c-2.19-0.23-4.04-2.03-5.09-4.14c-0.68-1.36-1.21-2.89-1.23-4.42c-0.02-1.47,0.58-3.06,1.65-3.99c0.82,4.22,5.25,7.02,9.49,6.16 c4.24-0.86,6.53-5.34,6.18-9.4c-0.41-4.73-4.38-8.01-8.94-8.51c-4.93-0.54-9.38,2.22-11.69,6.51 c-5.79,10.73,3.09,22.42,13.18,25.71c0.54,0.17,1.1,0.29,1.66,0.42c-0.41,0.31-0.82,0.63-1.23,0.97 c-3.69-0.22-7.39-0.43-11.08-0.64c-10.9-1.35-21.67-3.92-32.66-4.38c0.64-0.36,1.25-0.85,1.81-1.52c2.57-3.09-0.71-9.08-4.47-6.11 c-3.44,2.71,1.78,7.45,3.85,3.41c0.17-0.33-0.11-0.71-0.48-0.67c-0.83,0.09-1.59,0.93-2.4,0.32c-0.82-0.63-0.73-1.7,0.07-2.28 c0.7-0.51,1.59-0.61,2.31-0.1c2.17,1.54,1.23,4.56-0.67,5.81c-2.32,1.53-5.24,0.88-7.65-0.02c-3.62-1.35-6.82-2.91-10.75-3.16 c-7.54-0.49-14.67,2.93-19.33,8.82c-0.44,0.56-0.57,1.24,0.94,0.49c2.31-1.15,5.19,0.82,7.39,1.94c-1.59,1.09-3.09,2.32-4.45,3.7 c-5.47,5.56-8.54,13.41-8.29,21.2c0.25,7.79,3.81,15.43,9.63,20.62c3.48,3.1,7.6,5.31,11.49,7.84c0.25,0.16,0.5,0.33,0.76,0.5 c-0.08,0.08-0.16,2.67-0.28,3.8c-5.27-0.01-10.29,2.22-13.63,6.37c-1.76,2.19-2.94,4.78-3.48,7.54c-0.7,3.61-0.54,7.68-3.51,10.33 c-0.4,0.35-0.11,0.89,0.28,0.98c0.11,0.09,0.26,0.13,0.45,0.07c3.75-1.11,7.28-2.97,10.31-5.44c0.4-0.33,0.79-0.67,1.18-1.01 c0.13-0.04,0.23-0.13,0.3-0.28c2.49-2.33,4.59-5.07,6.15-8.11c1.79-3.48,2.86-7.3,3.17-11.21c0.06-0.79,0.09-1.58,0.09-2.38 c1.73,1.17,3.56,2.49,4.92,3.81c1,0.97,1.84,2.03,2.66,3.16c0.92,1.27,1.2,0.62,1.62-0.08c4.42-7.58,4.34-17.53,0-25.13 c4.28-5.23,11.92-3.32,17.8-4.18c4.43-0.64,8.39-2.97,11.2-6.37c-1.38,5.48-3.5,11.06-8.36,14.15c-1.53,0.97-3.38,1.69-5.22,1.5 c-1.94-0.2-4-1.56-4.21-3.6c3.59,5.4,9.22-3.18,3.29-4.49c-2.2-0.48-4.04,1.3-4.38,3.39c-0.39,2.4,1.21,4.51,3.38,5.39 c6.05,2.45,11.75-3.98,14.07-8.78c3.27-6.77,3.44-14.51,6.22-21.45c2.91-7.25,9.5-12.08,17.43-11.53 c-3.74,3.3-7.52,6.54-12.52,5.99c-0.96-0.1-1.29,0.36-1.2,0.68c0.41,1.45,1.04,2.79,1.87,4.04c0,0,1.37,1.28,1.88,1.76 c0,0-7.75,6.75-7.6,14.08c0.01,0.3,0.34,0.47,0.57,0.29c1.37-1.05,4.96-3.64,7.96-4.64c2.15-0.71,4.31-1.3,6.26-2.37 c0.42,1.7,1.19,3.24,2.3,4.6c0.27,0.41,0.58,0.81,0.93,1.18c0.42,0.44,0.72,0.08,1.06-0.53c2.37-4.1,4.74-8.6,9.02-11 c0.93-0.52,1.92-0.87,2.93-1.16c2.81,4.7,8.35,2.09,12.71-0.28c3.97-2.15,6.02-5.57,9.72-8.13c0.17-0.19,0.3-0.35,0.47-0.53 c3.65-3.28,7.21-6.95,8.54-11.62C552.13,179.84,552.96,175.59,550.35,172.22z M429.26,258.19c2.38-4.52,6.7-7.47,11.57-8.3 c-1.75,0.79-3.36,1.85-4.75,3.15c-3.76,0.58-5.51,3.96-7.55,6.91C428.72,259.34,428.96,258.75,429.26,258.19z M425.75,271.11 c1.31-2.51,1.53-5.54,2.08-8.43c2.15-2.47,3.7-6.52,6.71-8.01c-0.6,0.73-1.13,1.52-1.6,2.35 C430.4,261.59,430.01,267.72,425.75,271.11z M434.59,266.48c-2.18,1.98-4.68,3.64-7.44,4.88c2.78-2.68,3.88-6.51,5.2-10.17 c0.93-2.56,2.26-4.84,3.99-6.7C436.28,258.56,435.7,262.56,434.59,266.48z M436.17,264.92c0.91-3.78,1.36-7.63,1.31-11.53 c1.67-1.47,3.66-2.59,6-3.28C442.55,255.73,439.97,260.86,436.17,264.92z M476.15,202.76c0.04,0.6,0.53,0.69,0.49,0.09 c-0.26-4.39,1.6-7.51,4.46-9.64c-4.33,4.58-3.96,11.69,0.51,16.13c-0.01,0.01,2.74,2.09,2.74,2.09s0,0.01,0,0.01 c-0.07,0.35-0.15,0.69-0.23,1.04c-0.08,0.38-0.16,0.76-0.25,1.14c-0.06,0.08-2.69-0.5-4.35-1.23c-6.36-3.03-6.97-11.28-2.98-16.52 c1.52-1.99,3.4-3.46,5.5-4.52c-0.31,0.19-0.61,0.39-0.9,0.6C477.6,194.51,475.89,198.37,476.15,202.76z M475.01,196.46 c-3.15,5.03-2.44,12,2.19,15.59c-4.55-1.88-7.58-6.46-6.94-11.61c0.76-6.21,6.44-9.9,12.15-11.02c1.19-0.23,2.38-0.38,3.59-0.47 C481.57,190.05,477.58,192.35,475.01,196.46z M477.77,187.09c-1.49,0.33-2.94,0.85-4.32,1.57c-4.31,2.25-6.39,6.57-9.69,9.79 c1.03-1.96,1.38-4.21,2.42-6.24C468.55,187.58,473.16,186.83,477.77,187.09z M461.71,194.01c-0.9,3.02-3.7,4-6.7,4.09 c-1.4,0.04-2.71-0.01-4.02,0.3c2.76-3.84,7.73-4.62,11.86-6.46c1.39-0.62,2.7-1.47,4-2.3c-2.34,2.87-2.41,6.85-4.76,9.65 c-0.46-1.69-0.56-3.54,0.09-5.22C462.26,193.88,461.86,193.5,461.71,194.01z M460.86,191.75c-3.68,1.39-7.56,2.51-10.11,5.49 c0.2-0.93,0.34-2.28,0.8-3.14c0.5-0.95-0.06-0.53-0.71-0.15c-1.37,0.81-2.84,1.24-4.4,1.15c0.43-0.55,0.89-1.09,1.38-1.6 c0.7-0.72,1.46-1.39,2.25-2c0.15-0.12,1.93,0.41,2.24,0.44c0.76,0.07,1.53,0.06,2.29-0.02c2.74-0.28,5.33-1.41,7.82-2.52 c1.29-0.57,2.57-1.16,3.88-1.66c0.65-0.25,1.31-0.48,1.98-0.67c0.63-0.19,1.42-0.22,2.01-0.47 C467.04,187.98,464.11,190.52,460.86,191.75z M451.03,190.79c0.88-0.61,1.81-1.16,2.76-1.65c0.92,0.7,1.93,1.18,3.02,1.45 C454.94,191.08,453.03,191.24,451.03,190.79z M469.8,185.75c-3.73,0.75-7.22,2.83-10.81,4.16c-1.53,0.04-2.99-0.38-4.25-1.23 c1.35-0.63,2.22-0.92,4.18-1.55c-3.36,0.32-6.65,1.18-9.75,2.58c-4.55,2.06-9.65,5.5-10.77,10.66c-0.13,0.59-0.45,0.7-0.32,0.11 c1.1-5.08,5.19-8.89,9.64-11.11C452.74,186.86,465.07,185.27,469.8,185.75z M429.67,206.03c0.98,4.21,4.54,7.39,8.8,7.49 c3.01,2.94,6.52,5.32,9.68,8.09c0.17,0.15,0.33,0.29,0.49,0.44c-2.99-1.6-6.28-1.51-9.61-1.92c-8.9-1.08-13.98-10.46-9.58-18.16 C429.3,203.3,429.35,204.65,429.67,206.03z M448.79,180.93c2.39,0.5,5.39,2.08,8.37,3.02c-0.75,0.04-1.5,0.09-2.25,0.16 c-1.34,0.12-2.67,0.3-4,0.53c-1.08-1.48-2.34-3.01-3.86-3.98C447.62,180.72,448.21,180.81,448.79,180.93z M430.41,185.72 c0.5-0.42,1.02-0.82,1.55-1.2c1.09-0.78,2.26-1.45,3.48-2.02c2.65-1.23,5.79-2.2,8.75-1.91c1.2,0.12,2.29,0.69,3.21,1.46 c0.32,0.26,2.34,2.78,2.48,2.76c-2.93,0.56-5.82,1.39-8.56,2.53c-3.91-2.25-8.41-2.33-12.27-0.37 C429.53,186.73,429.99,186.08,430.41,185.72z M429.12,188c3.46-1.9,7.49-1.99,11.11-0.19c-1.56,0.7-3.07,1.51-4.5,2.43 C433.69,189.26,431.39,187.88,429.12,188z M435.34,192.9c-2.53,3.98-3.35,9.05-1.47,13.99c0.79,2.1,2.08,3.96,3.6,5.59 c-3.88-0.6-6.72-4.03-7.11-8.09C429.92,199.91,432.24,195.94,435.34,192.9z M429.24,197.23c1.02-1.21,2.12-2.3,3.28-3.3 c-0.38,0.67-0.79,1.32-1.21,1.96c-0.26,0.35-0.51,0.71-0.75,1.08c-1.25,1.69-2.67,3.24-4.28,4.63 C427.1,200.05,428.09,198.58,429.24,197.23z M425.34,203.53c0.03-0.01,0.06-0.02,0.09-0.05c1.05-0.81,2.03-1.67,2.95-2.59 c-0.82,1.83-1.43,3.74-1.83,5.7c-0.52,1.95-0.86,3.94-1,5.97c-0.28,4.13,0.87,8.57-0.61,12.52 C422.32,218.19,422.41,210.27,425.34,203.53z M427.41,230c-1-1.45-1.91-3.8-1.91-3.8c1.26-2.82,1.15-5.91,1.01-8.88 c0.51,2.88,1.34,5.69,2.54,8.38c1.54,3.44,4.39,6.73,4.23,10.64C431.03,234.55,429.1,232.45,427.41,230z M434.31,237.05 c-0.06-0.15-0.06-0.31-0.07-0.47c-0.06-2.94-1.31-5.67-2.76-8.26c-0.34-0.61-0.69-1.2-1.04-1.79c1.09,1.39,2.1,2.86,3.25,4.19 c1.19,1.39,2.52,2.65,3.79,3.97c1.84,1.93,3.52,4.28,3.6,6.95C438.92,240.33,434.4,237.24,434.31,237.05z M442.01,242.25 c0.14-2.98-1.24-5.17-3.03-7.17c5.07,3.95,9.19,8.33,11.89,14.01C448.3,246.38,445.19,244.28,442.01,242.25z M453.37,251.81 c-0.04,0.07-0.08,0.15-0.12,0.22c-0.1-0.15-4.94-9.71-9-13.79C449.08,241.01,455.25,245.49,453.37,251.81z M456.01,244.47 c-0.22,1.69-0.7,3.33-1.44,5.01c-0.1-3.55-2.33-6.82-5.2-9.06c-2.04-1.6-4.36-2.76-6.59-4.06c-2.85-1.66-6.15-3.87-7.9-6.73 c0.16,0.1,0.32,0.2,0.48,0.3c3.49,2.08,7.14,2.59,11.12,2.73c2.81,0.1,5.75,0.31,7.73,2.55c1.14,1.29,1.61,2.97,1.8,4.65 C456.21,241.46,456.21,242.98,456.01,244.47z M454.35,229.57c0.61,1.15,1.1,2.38,1.44,3.64c0.41,1.5,0.66,3.04,0.78,4.57 c-0.43-1.65-1.25-3.16-2.73-4.26c-3.32-2.46-7.78-1.47-11.58-2.07c-7.29-1.15-12.69-6.54-14.47-13.17 c-0.03-0.12-0.07-0.24-0.09-0.37c0-0.01-0.01-0.03-0.01-0.04c-0.07-0.28-0.13-0.56-0.18-0.84c-0.37-1.86-0.44-3.81-0.21-5.77 c0.68,2.77,2.27,5.33,4.77,7.2c3.22,2.41,6.8,2.52,10.65,2.9C447.82,221.87,452.01,225.18,454.35,229.57z M467.43,222.11 c-4.92,0.07-10.36,0.13-13.85,4c-0.31-0.48-0.64-0.96-0.98-1.42c-1.08-1.44-2.33-2.76-3.67-3.96c-1.59-1.42-3.51-2.48-5.02-3.98 c-2.82-2.54-3.58-5.14-1.63-3.07c-0.06-0.25-0.11-0.51-0.16-0.77c-1.07-5.84,0.27-12.11,3.67-16.95c1.6,0.2,3.14-0.04,4.57-0.71 c-0.45,1.16-0.69,2.38-0.75,3.64c-0.03,0.08-0.02,0.37-0.03,0.44c-0.01,0.48,0.26,0.39,0.83,0.23c2.66-1.01,5.63,0.01,8.24-1.25 c0.92-0.44,1.67-1.07,2.26-1.82c-0.1,1.38,0.1,2.77,0.64,4.11c0.09,0.23,0.14,0.52,0.34,0.5c0.11,0.03,0.4-0.19,0.53-0.28 c3.93-2.78,5.8-7.5,9.73-10.28c3.87-2.73,8.8-3.58,13.35-2.47c-3.27,0.26-6.47,0.98-9.4,2.65c-4.67,2.67-7.58,7.63-6.69,13.07 c0.83,5.08,5.03,9.09,9.99,10.07c0.09,0.02,2.58,0.66,3.74,0.91C479.45,220.03,473.8,222.02,467.43,222.11z M485.28,207.45 c-0.26,1-0.48,2-0.71,3c-0.56-0.38-1.52-0.97-1.97-1.41c-3.12-3.09-4.46-8.38-2.64-12.39c1.98-4.35,6.22-5.9,10.72-6.15 c1.3-0.07,2.6-0.1,3.9-0.12C488.9,194.12,486.57,200.79,485.28,207.45z M503.46,161.92c-1.72-2.09-4.12-1.8-6.12-0.61 c1.97-2,4.54-3.19,7.6-2.43c2.65,0.67,4.79,3.34,4.17,6.15c-0.82,3.67-4.86,4.24-7.64,2.66 C503.86,167.45,505.33,164.2,503.46,161.92z M506.2,156.31c5.67,0.76,9.49,6.23,7.27,11.74c-2.3,5.71-10.69,5.62-12.84,0.24 c2.28,1.55,5.25,1.81,7.51-0.07c2.48-2.06,2.54-5.72,0.5-8.13c-1.97-2.31-5.34-2.84-8.12-1.91c-2.27,0.76-4.01,2.28-5.34,4.14 C497.35,158.33,501.5,155.68,506.2,156.31z M494.83,173.33c-0.45-1.88-0.57-3.86-0.23-5.77c0.24-1.37,0.63-2.87,1.54-3.98 c0.8-0.97,2.78-1.92,3.61-0.42c1.09,1.96-1.5,3.38-2.21,4.91c-0.74,1.61-0.89,3.54-0.45,5.25c0.84,3.27,3.3,6.69,6.53,7.26 c-1.27,0.18-2.61-0.02-3.82-0.62C497.17,178.65,495.5,176.14,494.83,173.33z M505.11,192.94c0.88-0.78,1.8-1.62,2.76-2.45 c0.58-0.5,1.17-0.98,1.78-1.44c0.36-0.27,0.72-0.53,1.09-0.78c0.53-0.36,1.07-0.68,1.62-0.97c-0.58-0.09-1.15-0.2-1.71-0.32 c-4.64-1.02-8.96-3.17-12.23-6.73c3.36,2.13,7.78,1.66,10.15-1.59c2.63,2.37,5.63,4.09,8.8,5.23c2.74,0.99,5.6,1.51,8.49,1.56 c1.67,0.03,3.34-0.07,5-0.35c-2.17,0.77-4.35,1.4-6.5,1.85c-0.09,0.02-0.18,0.03-0.26,0.05c-0.93,0.19-1.88,0.34-2.84,0.45 c0.67,0.46,1.36,0.88,2.09,1.25c0.15,0.08,0.28,0.16,0.43,0.24c0.11,0.05,0.21,0.12,0.32,0.17c-0.38,0.22-0.79,0.43-1.2,0.64 c-3.53,1.81-7.95,3.23-11.79,3.12c-0.73-0.02,0.05,0.37,0.78,0.39c3.63,0.1,7.13-0.59,10.38-2c0.75-0.33,1.49-0.68,2.21-1.08 c0.01,0,0.02-0.01,0.02-0.01c-0.01,0.01-0.02,0.01-0.03,0.02c-0.81,0.63-1.65,1.21-2.5,1.77c-7.68,5.08-17.07,7.31-26.22,6.09 C499.3,197.57,502.41,195.33,505.11,192.94z M505.55,214.41c-0.87-1.61-1.09-3.49-0.57-5.33c0.2-0.7-0.18-1.13-1.09-0.32 c-3.76,3.17-11.47,3.66-14.78,7.52c0.27-7.03,10.58-14.72,9.89-14.93c-1.56-0.47-2.92-1.25-4.1-2.3 c7.52,1.13,15.21,0.03,22.08-3.04c-5.34,4.12-10.67,8.27-17.26,9.85c-0.71,0.17-0.46,0.75,0.25,0.58 c5.58-1.33,10.39-4.39,14.97-7.73c2.02-1.47,4.04-3,6.11-4.45c0.11-0.08,0.22-0.16,0.34-0.24c0.27-0.19,0.56,0.2,0.3,0.4 c-0.18,0.14-0.36,0.31-0.53,0.46c-0.57,0.47-1.13,0.94-1.71,1.46c-3.26,2.94-6.49,6.06-9.32,9.42 C507.98,208.32,506.27,211.16,505.55,214.41z M542.13,190.89c-0.68,0.82-1.42,1.59-2.19,2.33c-0.81,0.78-1.64,1.63-2.5,2.49 c-4.71,4.78-10.13,10.19-16.88,7.93c2.13-0.53,4.25-1.05,5.97-2.59c0.55-0.49,0.05-1.06-0.5-0.57c-1.87,1.66-4.43,1.73-6.78,2.31 c-1.84,0.45-3.55,1.14-5.12,2.23c-3.3,2.29-5.42,5.79-7.4,9.23c0.9-3.6,3.15-6.63,5.67-9.34c2.64-2.85,5.43-5.6,8.33-8.18 c0.51-0.45,1.04-0.89,1.56-1.33c0.51-0.42,1.03-0.83,1.55-1.24c0.72-0.56,1.45-1.1,2.2-1.61c1.08-0.75,2.18-1.46,3.31-2.1 c1.28-0.72,2.6-1.35,3.95-1.9c2.08-0.85,4.24-1.51,6.5-1.87c1.36-0.09,2.72-0.09,4.07,0.01c0.09,0.01,0.19,0.02,0.28,0.03 c-2.98,1.19-5.71,2.83-8.18,4.82c-1.16,0.93-2.28,1.92-3.31,3.01c-0.05,0.06-0.09,0.11-0.13,0.17c-0.32,0.51-0.11,1.13,0.34,0.65 c0.38-0.4,0.77-0.79,1.18-1.16c1.21-1.12,2.55-2.14,3.96-3.05c2.12-1.37,4.39-2.52,6.65-3.42 C543.89,188.76,542.89,189.98,542.13,190.89z M538.2,183.94c-1.42,0.01-2.85,0.05-4.28,0.12c-5.92,0.27-13.13,0.37-17.08-4.74 c3.07-0.04,5.68-2.32,8.42-3.74c3.96-2.06,8.77-1.28,11.96,1.73c1.66,2.17,3.62,4.1,5.82,5.73c0.76,0.56,1.54,1.09,2.36,1.58 C543.06,184.05,540.64,183.92,538.2,183.94z"></path> <path class="st0" d="M284.02,227.96c-2.4-2.53-5.29-4.58-8.48-5.99c-0.42-0.19-0.85-0.36-1.28-0.53c-0.08-0.08-0.2-0.13-0.34-0.12 c-2.85-1.04-5.88-1.6-8.91-1.61c-3.49-0.02-6.95,0.67-10.17,2c-0.65,0.27-1.29,0.57-1.92,0.89c0.23-1.84,0.54-3.83,1.05-5.44 c0.37-1.18,0.87-2.28,1.44-3.38c0.64-1.24,0.01-1.2-0.72-1.25c-7.8-0.45-15.67,3.62-19.95,10.13c-5.87-1.29-7.44-8.12-10.49-12.45 c-2.3-3.26-5.74-5.46-9.57-6.32c4.9-1.11,10.19-1.68,14.6,0.94c1.39,0.82,2.7,2,3.3,3.54c0.62,1.62,0.37,3.8-1.16,4.79 c2.85-5.02-6.24-6.04-4.89-0.8c0.5,1.94,2.66,2.69,4.45,2.11c2.06-0.66,3.09-2.78,2.92-4.86c-0.5-5.79-7.9-7.73-12.64-7.63 c-6.69,0.13-12.91,3.12-19.53,3.7c-6.92,0.61-13.39-2.68-16.16-9.18c4.12,1.64,8.2,3.34,9.79,7.52c0.3,0.8,0.8,0.88,1.02,0.68 c0.99-0.91,1.8-1.95,2.45-3.11c0,0,0.47-1.6,0.64-2.2c0,0,8.48,3.43,14.24,0.36c0.23-0.12,0.23-0.46,0-0.57 c-1.38-0.67-4.89-2.47-6.89-4.45c-1.44-1.42-2.77-2.9-4.41-4.01c1.18-1.02,2.09-2.25,2.72-3.68c0.22-0.38,0.41-0.79,0.56-1.21 c0.18-0.51-0.23-0.6-0.85-0.63c-4.21-0.23-8.74-0.3-12.36-2.73c-0.79-0.53-1.46-1.17-2.1-1.86c2.59-4.13,0.11-8.85-3.53-11.36 c-0.53-0.37-1.09-0.69-1.67-1c0.21-0.03,0.41-0.05,0.62-0.08c5.29-0.99,9.99-4.23,15.47-4.26c0.01,0.01,1.48,0.21,0.67-0.61 c-0.91-0.92-1.85-1.78-2.91-2.46c1.78-0.25,3.49-0.81,5.09-1.7c0.41-0.23,0.45-0.34,0.23-0.73c-1.33-2.33-3.32-4.1-5.75-5.16 c0.55-0.48,1.05-1.02,1.48-1.63c1.04-1.46,1.42-3.11,1.7-4.85c0.35-2.1,0.61-4.58,2.63-5.65c2.19,0.64,4.84-0.47,6.32-2.24 c2.94-3.54,3.57-8.97,2.69-13.34c-0.62-3.1-2.09-5.91-4.14-8.24c1.27-0.46,2.44-1.11,3.51-1.94c0.24-0.19,0.24-0.7-0.51-1.13 c-8.02-4.63-3.96-18.03-11.91-22.42c2.14-0.39,4.22-1.19,6.11-2.38c0.16-0.1,0.99-0.77-0.08-1.02c-2.64-0.6-3.54-3.36-4.45-5.66 c-0.74-1.86-1.55-3.58-3.05-4.94c-0.62-0.57-1.3-1.04-2.02-1.44c2.43-1.76,4.19-4.19,5.09-7.08c0.15-0.49,0.08-0.6-0.43-0.75 c-1.98-0.59-4-0.8-6.02-0.65c1-1.01,1.84-2.18,2.61-3.42c0.69-1.11-0.88-0.53-0.89-0.52c-6.06,1.29-12.02-1.15-18.1-0.96 c-4.83,0.15-9.3,2.17-12.68,5.51c0.36-2.28-1.63-4.66-4.31-3.58c-2.1,0.85-3.62,3.84-4.91,5.53l-1.81,2.37 c0.09-2.21-0.34-4.36-1.33-6.43c-0.17-0.36-0.58-0.32-0.8-0.1c-0.11,0.03-0.21,0.09-0.28,0.2c-2.67,3.74-5.16,6.85-9.92,7.97 c-4.09,0.97-8.46,0.13-11.93-2.23c-0.05-0.04-0.1-0.06-0.15-0.07c-0.17-0.08-0.38-0.08-0.56,0.07c-0.4,0.32-0.74,0.69-1.06,1.06 c0.07-0.31,0.12-0.64,0.12-1l0.02-1.8L86.1,70.41l0.27,1.81c-1.51-1.06-3.01-2.64-3.02-4.37c0-0.09-0.03-0.18-0.09-0.26 c-0.05-0.09-6.26-3.79-6.31-3.79c-0.25-0.18-0.65-0.14-0.72,0.25c-0.22,1.21-0.45,2.42-0.67,3.62c-1.2-1.38-2.81-3.23-3.7-4.86 c-0.09-0.4-0.23-0.18-0.39,0.32c-0.88,2.68-0.86,5.46,0.01,8.09c-1.25-0.69-2.67-0.94-4.14-0.6c-1.75,0.4-3.81,1.95-5.71,2.06 c0,0-2.05,0.02-3.29-0.35c-1.24-0.37,0.39,1.3,1.69,1.85c0,0-1.95,0.61-3.63,1.55c-1.68,0.94-3.14,2.3-4.2,3.99 c-0.29,0.47-0.8,0.74,0.41,0.48c2.78-0.84,5.49,0.91,7.97,1.95c1.98,0.83,4.04,1.16,6.18,0.9c0.9-0.11,1.78-0.32,2.63-0.62 c-1,1.23-2.52,2.4-4.14,2.75c-1.46,0.31-0.66,0.61,0.25,0.82c4.54,1.06,8.89-0.6,12.81-2.75c0.02,0.04,0.05,0.09,0.08,0.14 c-0.53,1.68-0.69,3.43-0.37,5.06c0.57,2.91,2.4,6.48,7.87,7.72l-0.07,0.07l0.26-0.03c0.34,0.07,0.69,0.14,1.05,0.19v3.84l3.29,0 v136.43c-1.96,0.48-3.94,0.66-5.82-0.18c-1.48-0.53-0.89-0.1-0.6,0.54c1.06,2.31,2.68,4.26,4.65,5.73 c-3.95,1.98-7.93,4.3-12.16,5.54c-4.39,1.29-10.54,0.83-12.29-4.23c-1.54-4.47,3.79-9.62,8.04-6.6c1.86,1.33,1.98,4.65,0.09,5.54 c1.33-0.63,0.93-2.95,0.31-3.88c-1.85-2.76-6.03,0.52-4.7,3.26c0.65,1.34,2.28,2.23,3.75,2.1c1.03-0.09,1.92-0.66,2.52-1.5 c1.35-1.89,0.93-4.58-0.75-6.12c-1.88-1.72-4.81-1.93-7.02-0.74c-5.28,2.84-4.57,9.81,0.24,12.68c5.76,3.43,12.7,0.21,18.54-2.87 c-2.53,2.02-5.17,4.73-8.49,5.05c-0.3,0.03-1.02-0.43-0.29,0.62c0.94,1.37,1.98,2.11,3.45,2.78c0.78,0.36,2.28,1.21,6.5-3.33 c1.42-1.53,3.37-2.61,5.47-2.85c2.58-0.29,5.82,1.4,5.7,4.36c-0.01,0.2-0.03,0.39-0.08,0.57c-0.27-2.47-3.37-4.4-5.72-2.05 c-3.32,3.32,2.58,7.97,5.73,4.6c3.01-3.22,0.61-6.95-2.73-8.25c2.38,0.44,4.73,2.74,6.87,3.53c1.79,0.67,3.63,0.59,5.32-0.08 c-1.53,3.18-2.01,6.68-1.35,10.2c0.12,0.66,0.26,0.96,0.44,0.47c1.39-1.92,3.72-3.98,5.46-5.53c0.09,1.56,0.17,3.12,0.26,4.68 c0.03,0.5,0.52,0.61,0.87,0.43c0.06,0,8.49-3.65,8.58-3.75c0.09-0.09,0.14-0.2,0.16-0.31c2.22-6.13,9.43-6.85,15.01-7.36 c4.13-0.38,8.45-1.01,11.72-3.53c3-1.53,5.63-3.93,5.55-7.42c-0.11-4.51-5.54-6.78-8.29-2.81c-1.8,2.6,0.11,5.67,2.82,6.39 c-3.1,1.37-7.03-0.84-9.64-2.72c-2.66-1.92-5.24-3.87-8.58-4.34c-0.21-0.03-1.69,0.84-3.24,1.76v-44.47 c2.25,0.83,4.71,0.75,6.87-0.86c0.73,0.58,1.43,1.2,2.02,1.94c2.71,3.42,3.14,7.93,3.71,12.11c0.07,0.62,0.2,1.02,0.69,0.8 c0.41-0.19,0.8-0.41,1.16-0.65c1.37-0.74,2.52-1.75,3.45-3.01c1.24,1.55,2.82,2.76,4.35,4.07c2.13,1.83,4.21,5.19,4.98,6.51 c0.13,0.23,0.46,0.2,0.57-0.04c2.6-5.99-1.49-14.17-1.49-14.17c0.58-0.22,2.14-0.82,2.14-0.82c1.11-0.74,2.07-1.64,2.91-2.69 c0.19-0.24,0.07-0.73-0.76-0.96c-5.75-1.66-7.44-8.14-10.34-13.08c0.5,0.09,1.01,0.18,1.51,0.22c0.01,0,0.02,0,0.03,0 c0.71,0.07,0.84,0.08,1.3,0.03c0.92,0,1.84-0.06,2.77-0.19c-0.22,1.47-0.24,2.97-0.04,4.48c0.07,0.52,0.17,0.61,0.67,0.54 c2.96-0.42,5.61-1.75,7.71-3.83c0.27,0.77,0.63,1.5,1.08,2.2c1.09,1.68,2.64,2.74,4.33,3.76c2.09,1.25,4.65,2.57,4.81,5.24 c0.06,1.08,0.86,0.38,0.98,0.24c0.85-0.96,1.56-2,2.17-3.1c0.03,0.4,0.05,0.79,0.06,1.19c0.03,2.18-0.25,4.36-0.83,6.46 c-0.11,0.43-0.36,0.79,0.13,0.81c0.01,0,0.17,0.03,0.24,0.02c0.01,0,2.28,0.25,3.12,2.44c0.7,1.84,0.01,4.02-1.24,5.71 c-0.81,1.09-1.8,2.12-3.02,2.76c-1.16,0.61-2.66,0.77-3.84,0.3c3.02-2.35,3.46-6.99,1.06-10.01c-2.39-3.01-6.87-3.04-9.95-1.12 c-3.59,2.23-4.59,6.7-3.15,10.53c1.56,4.13,5.54,6.55,9.88,6.66c10.85,0.27,16.55-11.49,15.1-20.82c-0.08-0.5-0.21-0.99-0.34-1.48 c0.42,0.2,0.84,0.4,1.27,0.58c1.32,3.02,2.63,6.04,3.95,9.06c3.32,9.2,5.62,18.78,9.68,27.69c-0.54-0.37-1.18-0.65-1.93-0.82 c-3.48-0.79-6.92,4.22-3.05,6.01c3.54,1.64,5.2-4.42,1.15-4.43c-0.33,0-0.52,0.37-0.34,0.65c0.4,0.62,1.38,0.89,1.22,1.78 c-0.17,0.9-1.05,1.27-1.84,0.87c-0.69-0.35-1.12-1.02-1.01-1.8c0.35-2.35,3.12-2.81,4.88-1.81c2.14,1.22,2.81,3.81,3.07,6.08 c0.39,3.42,0.44,6.59,1.82,9.81c2.65,6.18,8.24,10.47,14.79,11.79c0.62,0.12,1.22-0.05,0.01-0.94c-1.84-1.37-1.44-4.45-1.44-6.64 c1.51,0.82,3.08,1.52,4.73,2.04c6.62,2.1,14.08,1.38,20.17-1.96c6.09-3.34,10.71-9.24,12.49-15.95c1.06-4.01,1.15-8.18,1.59-12.28 c0.03-0.26,0.06-0.53,0.09-0.81c0.1,0.03,2.18-0.95,3.13-1.31c2.11,4.19,5.91,7.27,10.55,8.25c2.45,0.52,4.98,0.41,7.39-0.27 c3.15-0.89,6.31-2.67,9.62-1.38c0.44,0.17,0.75-0.27,0.67-0.62C284.17,228.22,284.14,228.08,284.02,227.96z M199.94,189.6 c-0.64,0.12-0.82,0.6,0.19,0.99c4.03,1.71,7.53,7.63,11.93,8.7c-5.69,2.61-15.95-2.47-15.84-1.84c0.25,1.43,0.19,2.82-0.18,4.18 c-2.13-6.42-6.1-12.09-11.31-16.3c5.42,2.58,10.86,5.13,14.77,9.73c0.42,0.5,0.79,0.06,0.36-0.43c-3.31-3.89-7.67-6.47-12.17-8.77 c-2.09-1.07-4.23-2.1-6.32-3.23c-0.26-0.14-0.07-0.52,0.2-0.41c0.78,0.35,1.58,0.68,2.43,1.01c3.65,1.4,7.42,2.71,11.23,3.61 c2.9,0.68,5.84,0.89,8.71,0.15C203.01,188.34,201.61,189.28,199.94,189.6z M193.01,183.96c3.15,1.7,6.78,1.97,10.31,2.16 c-3.22,0.74-6.53,0.17-9.7-0.73c-3.32-0.95-6.63-2.05-9.84-3.32c-6.05-2.38-11.82-5.76-15.66-11.09c-0.17-0.29-0.32-0.59-0.48-0.88 c-0.42-0.77-0.81-1.55-1.15-2.36c-0.03-0.08-0.06-0.16-0.09-0.23c0.49,0.43,1.02,0.81,1.54,1.21c2.79,2.13,5.91,3.76,9.31,4.76 c0.62,0.18,1.19-0.32,0.57-0.5c-2.39-0.7-4.71-1.86-6.85-3.27c1.26,0.13,2.18-0.47,2.65-1.35c6.13,2.1,14.65,3.8,15.72,11.06 c-1.28-1.48-2.55-2.95-4.46-3.7c-0.61-0.24-0.86,0.39-0.25,0.63c2.08,0.81,3.16,2.82,4.56,4.45 C190.28,182.07,191.52,183.16,193.01,183.96z M190.22,178.65c-1.22-5.61-7.15-8.35-12.25-9.97c-1.31-0.41-2.67-0.81-4.03-1.27 c0.09-0.54,0.05-1.1-0.16-1.63c2.83,1.8,6.11,2.71,9.45,2.62C187.16,170.33,191.83,174.15,190.22,178.65z M187.98,166.67 c-1.45,0.44-2.97,0.67-4.49,0.74c-0.93,0.04-1.86,0-2.79-0.1c-3-0.33-5.91-1.37-8.34-3.21c-1.23-0.93-1.09,0.38-0.19,1.05 c0.76,0.56,0.99,1.29,0.9,1.95c-0.05,0.36-0.2,0.68-0.42,0.96c-0.54,0.67-1.5,1.02-2.58,0.44c-0.7-0.38-1.36-0.93-2-1.51 c-0.04-0.04-0.08-0.07-0.12-0.11c-0.48-0.44-0.95-0.89-1.42-1.28c-1.36-1.15-2.72-2.31-4.08-3.46c-0.15-0.13-0.3-0.26-0.46-0.39 c-0.62-0.53-1.25-1.06-1.87-1.59c0,0,0,0,0,0c1.24,0.38,2.51,0.63,3.79,0.82c0.3,0.04,0.6,0.11,0.9,0.14 c0.12,0.01,0.24,0.02,0.36,0.04c0.05,0.01,0.09,0.01,0.14,0.01c0.19,0.02,0.39,0.04,0.58,0.06c0.33,0.04,0.66,0.07,0.98,0.1 c0.97,0.1,1.93,0.17,2.9,0.2c0.71,0.02,1.41,0.14,2.07,0.37c0.69,0.23,1.34,0.57,1.94,1c0.64,0.46,1.31,0.86,2,1.22c0,0,0,0,0,0 c0.24,0.13,0.49,0.25,0.74,0.37c2.42,1.13,5.09,1.69,7.79,1.55c4.84-0.26,9.72-3.71,14.57-2.85 C195.13,163.78,191.65,165.56,187.98,166.67z M140.74,155.11c3.88-1.76,8.48-1.09,12.1,1.09c0.23,0.14,0.47,0.29,0.7,0.43 c0.16,0.1,0.33,0.2,0.49,0.3c-0.25,0.03-0.51,0.08-0.77,0.16c-0.43,0.14-0.81,0.39-1.12,0.7c-0.62,0.6-0.97,1.45-0.89,2.25 c0.02,0.18,0.05,0.36,0.11,0.53c-0.11-0.06-0.22-0.1-0.33-0.15c-0.25-0.12-0.5-0.23-0.75-0.35c-0.89-0.41-1.8-0.78-2.73-1.06 c-2.39-0.73-4.76-0.86-7.19-0.81c-0.02,0-0.03,0-0.05,0c-0.76,0.02-1.52,0.05-2.28,0.09c-0.71,0.04-1.44,0.06-2.16,0.05 c-1.09,0-2.18-0.08-3.23-0.27c-0.73-0.13-1.45-0.31-2.14-0.59c1.29-0.06,2.55-0.55,3.7-1.24c0.1-0.06,0.19-0.12,0.28-0.18 c0.14-0.09,0.29-0.17,0.43-0.27c0.65-0.46,1.26-0.96,1.86-1.45c1.84-1.51,3.59-3.03,6-3.73c5.33-1.55,10.8,0.68,13.74,5.04 c0.17,0.26,0.34,0.52,0.49,0.79c0.31,0.53,0.58,1.09,0.81,1.67c-0.07-0.03-0.14-0.05-0.2-0.08c-0.78-0.36-1.52-0.79-2.24-1.23 c-0.31-0.19-0.62-0.39-0.93-0.58c-1.66-1.06-3.32-2.1-5.33-2.54c-2.89-0.63-5.83-0.26-8.51,0.95 C140.05,154.87,140.21,155.35,140.74,155.11z M130.19,152.35c-0.85,1.9-2.01,3.67-3.48,5.13v-3.18 C127.95,153.84,129.13,153.24,130.19,152.35z M126.7,153.28v-0.66c0.76-0.16,1.52-0.33,2.27-0.57 C128.27,152.57,127.5,152.95,126.7,153.28z M135.11,154.56c-0.62,0.51-1.25,0.99-1.91,1.39c-1.14,0.69-2.35,1.11-3.62,0.94 c-0.32-0.04-0.65-0.14-0.97-0.27c0.24-0.27,0.48-0.54,0.7-0.82c0.15-0.06,0.3-0.11,0.45-0.17c0.01,0,0.02-0.01,0.03-0.01 C131.5,154.95,133.27,154.59,135.11,154.56z M127.93,157.35c0.47,0.36,0.96,0.64,1.45,0.88c0.75,0.35,1.51,0.59,2.3,0.74 c-0.86,0.81-1.76,1.56-2.72,2.24c-0.73,0.52-1.48,1-2.26,1.43v-4.15C127.13,158.13,127.54,157.75,127.93,157.35z M127.51,163.46 c0.39-0.15,0.79-0.26,1.19-0.36c0.18-0.04,0.35-0.07,0.53-0.1c0,0,1.26-0.16,1.79-0.14c2.6,0.04,5.15,1.13,6.92,3.22 c1.78,2.1,3.15,4.85,5.67,5.93c-1.89,1.09-3.92,1.41-5.97,1.25c-3.34-0.25-6.74-1.74-9.7-3.12c-0.41-0.19-0.83-0.38-1.24-0.57 v-3.98v-1v-0.71C126.97,163.74,127.25,163.61,127.51,163.46z M137.77,163.69c-1.81-1.87-6.4-2.16-6.4-2.16s1.71-2.06,5.81-2.05 c5.62,0.01,5.14-0.02,6.68,0.11c0.63,0.06,4.34,0.61,6.99,2.03c-1.45,4.34-1.11,9.77-1.32,9.77 C143.33,171.44,142.88,168.95,137.77,163.69z M157.48,155.55c-2.35-3.77-6.42-6.31-11.02-6.35c-3.04-0.02-5.97,0.98-8.38,2.83 c-0.57,0.44-1.18,0.98-1.8,1.53c-0.03,0-0.04-0.01-0.07-0.01c-2.04-0.1-4.02,0.18-5.93,0.81c0.72-1.2,1.24-2.52,1.69-3.89 c0.4-1.22-0.97-0.3-0.97-0.28c-1.39,0.67-2.82,1.12-4.29,1.43v-51.35l0.39,0h0.89h1.81v-1.78l0.01-0.39l-0.01-0.23 c-0.02-0.52-0.03-1.05-0.02-1.39c0.3-0.07,0.76-0.16,1.18-0.23c2-0.36,3.7-1.27,5.03-2.53c1.45,0.1,2.92,0,4.36-0.33 c6.19-1.41,10.66-6.72,11.44-12.9c2.77-1.08,6.09-1.69,8.72,0.1c2.76,1.87,3.22,5.54,2.21,8.5c-0.46,1.37-1.21,2.81-2.58,3.46 c-1.83,0.87-4.11,0.06-4.77-1.92c-0.55-1.67,0.42-3.62,2.24-3.91c2.19-0.35,3.98,1.62,3.26,3.61c-0.23,0.62,0.42,1.01,0.65,0.38 c1.4-3.87-3.58-6.86-6.32-3.77c-2.86,3.22,0.67,7.86,4.57,6.82c4.29-1.15,5.38-7.55,3.76-11.08c0-0.01-0.01-0.01-0.01-0.02 c-0.16-0.35,0.26-0.67,0.54-0.41c0.89,0.81,1.68,1.74,2.36,2.75c0.59,0.87,1.11,1.8,1.56,2.75c0.41,0.88,0.67,1.84,1.09,2.7 c0.11,0.22,0.27,0.23,0.55,0.17c2.24-0.19,4.27-1.01,5.98-2.46c1.33,3.83,1.57,8.2,3.31,11.88c1.92,4.05,6.23,7.3,10.78,5.38 c0.58,0.75,1.12,1.53,1.52,2.4c0.75,1.66,1.07,3.41,1.17,5.18c-0.43,1.01-0.82,2.02-1.06,3.09c-1.24-0.64-2.57-1-3.97-1.05 c-0.39-0.06-0.79-0.08-1.2-0.06c-0.48,0.02-0.43,0.39-0.24,0.91c1.2,3.58,2.64,7.38,1.82,11.21c-0.18,0.83-0.5,1.61-0.86,2.37 c-4.3-0.8-7.41,2.83-8.31,6.7c-0.81,3.52-0.19,7.34-0.61,10.91c-1.76-0.93-3.66-1.26-5.64-1c-0.26,0-0.39,0.04-0.44,0.25 c-0.21,0.83-0.24,1.71-0.44,2.55c-0.21,0.91-0.48,1.81-0.83,2.68c-0.4,1-0.91,1.95-1.53,2.82c-0.2,0.28-0.62,0.08-0.55-0.25 c0-0.01,0-0.01,0-0.02c0.73-3.36-1.42-8.69-5.35-8.87c-3.57-0.16-5.75,4.52-2.67,6.76c2.96,2.16,6.7-1.37,4.75-4.46 c-0.31-0.49-0.8-0.04-0.49,0.46c1,1.59-0.17,3.63-2.13,3.74c-1.62,0.09-2.84-1.41-2.68-2.96c0.19-1.83,2.01-2.96,3.76-2.56 c1.31,0.3,2.23,1.41,2.89,2.51c1.43,2.37,1.73,5.63-0.3,7.77c-0.11,0.11-0.23,0.2-0.34,0.3c-0.44,0.39-0.92,0.72-1.44,0.95 c-0.12,0.05-0.24,0.1-0.36,0.14c-1.03-0.86-2.22-1.54-3.59-1.94C159.57,155.63,158.52,155.51,157.48,155.55z M145.93,83 c0.31,0.03,0.61,0.03,0.89-0.01c-0.37,0.37-0.75,0.74-1.13,1.1c-1.94,1.84-4.33,3.2-6.88,3.89c0.05-0.4,0.1-0.8,0.11-1.21 c0.01-1.43-0.24-2.79-0.69-4.05c0.32-0.15,0.63-0.29,0.95-0.46c1.35-0.75,2.62-1.65,3.83-2.64C142.79,81.2,144.18,82.83,145.93,83z M138.65,88.9c1.2-0.22,2.38-0.59,3.52-1.11c3.42-1.57,5.41-4.65,8.33-6.86c0.07-0.05,0.14-0.09,0.21-0.14 c-1.07,6.79-6.89,11.91-13.81,11.92C137.74,91.61,138.35,90.32,138.65,88.9z M184.73,91.1c-0.53-4.23-1.95-8.23-4.19-11.82 c0.07,0.04,0.15,0.08,0.22,0.13c1.04,0.65,2.03,1.38,2.97,2.16c4.14,4.16,6.52,9.56,7.98,15.19c-0.19,0.25-0.36,0.5-0.5,0.82 c-0.62,1.45-0.06,2.95,0.8,4.16c0.31,0.44,0.65,0.86,1,1.27c0.36,2.06,0.68,4.12,0.92,6.19c-0.2,0.63-0.44,1.25-0.69,1.84 c-0.13-0.83-0.32-1.65-0.6-2.46c-0.56-1.62-1.44-3.04-2.54-4.34c-1.4-1.67-3.23-3.08-3.7-5.29c-0.14-0.65-0.81-0.5-0.67,0.15 c0.44,2.03,1.7,3.54,2.97,5.06c-7.22-2.3-7.4-11.4-8.55-17.9c-0.17-0.95-0.29-1.9-0.35-2.86c-0.07-1.07-0.14-2.48-0.17-3.66 c2.2,3.53,4,7.68,4.51,11.84C184.22,92.24,184.81,91.75,184.73,91.1z M193.13,96.64c0.39-0.29,0.8-0.48,1.22-0.56 c0.3-0.06,0.62-0.06,0.93-0.03c0.42,0.04,0.84,0.15,1.25,0.32c1.49,0.61,2.88,1.93,3.67,3.1c0.39,0.58,0.71,1.19,1.01,1.8 c0.05,0.1,0.1,0.2,0.15,0.3c0.91,2.05,1.31,4.27,1.26,6.48c-0.01,0.44-0.04,0.88-0.09,1.32c-0.2,1.82-0.71,3.6-1.5,5.27 c-0.1,0.2-0.19,0.41-0.3,0.61c-0.57,1.09-1.27,2.12-2.08,3.05c-0.01,0.01-0.01,0.01-0.02,0.02c-0.51,0.58-0.12,0.92,0.35,0.66 c0.01-0.01,0.02,0,0.03-0.01c1.11-0.68,2.29-1.09,3.54-1.23c-0.98,0.82-1.89,1.71-2.76,2.65c-0.25,0.27-0.5,0.54-0.74,0.82 c-2.87,3.31-5.05,7.19-6.35,11.36c0.26-3.94,0.52-7.88,1.63-11.58c0.16-0.54,0.35-1.07,0.55-1.59c0.3-0.8,0.64-1.59,1.05-2.36 c0.27-0.52-0.21-0.68-0.48-0.16c-0.51,0.96-0.94,1.95-1.3,2.96c-0.16,0.45-0.31,0.9-0.44,1.35c-0.85,2.82-1.27,5.78-1.55,8.74 c-0.2,2.1-0.36,4.22-0.6,6.34c-0.03,0.26-0.41,0.23-0.4-0.03c0.03-0.77,0.05-1.54,0.04-2.36c-0.04-3.5-0.2-7.09-0.71-10.56 c-0.39-2.64-1.19-5.17-2.75-7.31c1.42,0.33,2.67,1.19,3.49,2.47c0.31,0.49,0.77,0.49,0.77-0.49c0.02-0.74,0.16-1.5,0.39-2.27 c0.27-0.92,0.64-1.86,1.04-2.81c0.23-0.56,0.47-1.12,0.7-1.69c0.31-0.77,0.6-1.54,0.82-2.3c0.34-1.18,0.53-2.34,0.37-3.46 c0.39,0.39,0.77,0.78,1.14,1.17c0.16,0.17,0.33,0.33,0.49,0.5c0.25,0.27,0.46,0.22,0.49,0.05c0.02-0.08-0.01-0.19-0.11-0.32 c-0.02-0.02-0.02-0.04-0.04-0.07c-0.51-0.54-0.95-1.14-1.39-1.75c-0.52-0.72-1.03-1.44-1.63-2.09c-0.08-0.08-0.17-0.18-0.25-0.27 c-0.47-0.51-0.99-1.1-1.4-1.74c-0.59-0.91-0.95-1.91-0.59-2.88c0.07-0.2,0.16-0.41,0.3-0.61c0.15-0.21,0.31-0.39,0.47-0.56 C192.9,96.82,193.01,96.73,193.13,96.64z M193.01,92.27c0.48,1.04,1.05,2.03,1.68,2.97c-0.22,0.01-0.43,0.06-0.65,0.11 C193.65,94.34,193.3,93.32,193.01,92.27z M202.15,139.49C202.16,139.49,202.16,139.49,202.15,139.49c-1.14-0.22-2.3-0.33-3.45-0.29 c3.85-3.39,2.8-9.02,3.09-14.08c1.34,2.06,2.41,4.48,1.65,6.82c-0.53,0.9-1.02,1.82-1.42,2.77 C201.38,136.26,201.12,138.04,202.15,139.49z M201.22,122.52c-0.1,0.47-0.18,0.95-0.24,1.44c-0.13,1.04-0.17,2.11-0.16,3.15 c0.01,4.24,0.4,9.64-3.78,12.2c-0.03,0.02-0.06,0.04-0.08,0.06c-1.33,0.2-2.64,0.58-3.88,1.12c0.69-3.32,2.28-7.26,4.61-9.76 c0.4-0.43-0.24-0.17-0.65,0.26c-2.44,2.61-4.07,5.74-4.82,9.18c0.38-6.69,3.03-13.1,7.35-18.16c0.24-0.28,0.46-0.57,0.71-0.84 c0.76-0.83,1.57-1.63,2.42-2.37C201.96,119.92,201.51,121.19,201.22,122.52z M185.29,142.75c-0.05-0.58-0.66-0.89-0.6-0.31 c0.34,3.69-0.43,7.63-1.66,11.09c-0.2-1.02-0.4-2.26-0.54-3.19c-0.13-0.84-0.2-1.69-0.24-2.54c-0.24-5.84-1.81-13.74,4.01-17.1 c-0.81,1.55-1.61,3.1-1.61,4.94c0,0.59,0.61,0.59,0.61,0c-0.01-2,1.3-3.57,2.2-5.28c0.7-1.34,1.19-2.73,1.37-4.24 c0.37-3.19-0.6-6.31-1.61-9.31c1.68,2.44,2.3,5.39,2.6,8.33c0.31,3.08,0.48,6.21,0.49,9.3c0.01,5.83-0.89,11.76-4.07,16.73 c-0.66,0.86-1.38,1.67-2.16,2.43c-0.05,0.05-0.11,0.1-0.17,0.15C185.16,150.23,185.63,146.51,185.29,142.75z M181.05,143.73 c0.24,3.4,0.75,7.13-0.41,10.41c-0.52,1.48-1.44,2.54-2.56,3.37c-0.75,0.55-1.59,1-2.48,1.38c-0.1,0.04-0.2,0.09-0.31,0.13 c-1.36,0.47-2.77,0.77-4.19,0.99c-0.18,0.03-0.36,0.06-0.54,0.09c-1.41,0.18-2.84,0.23-4.27,0.17c-0.35-0.02-0.7-0.04-1.05-0.07 c-0.09-0.01-0.17-0.01-0.26-0.02c-0.18-0.02-0.35-0.01-0.53-0.04c-0.1-0.02-0.21-0.04-0.31-0.06c-0.11-0.02-0.22-0.04-0.33-0.06 c0.08,0,0.15-0.01,0.23-0.01c0.29-0.01,0.59-0.02,0.88-0.05c0.05,0,0.1-0.01,0.15-0.02c0.31-0.03,0.62-0.07,0.92-0.13 c1.69-0.3,3.28-0.96,4.66-2.02c0.43-0.33,0.85-0.69,1.24-1.11c0.45-0.49,0.82-1.03,1.15-1.59c1.4-2.41,1.61-5.35,0.34-7.89 c0.95,0.34,1.8,0.9,2.46,1.64c0.88,0.99,0.97,2.48,0.21,3.56c0,0.01-0.01,0.01-0.01,0.02c-0.34,0.48,0.14,0.63,0.48,0.16 c2.55-3.6,2.44-7.96,2.51-12.1c0.07-3.95,1.6-10.11,6.28-10.26C181.04,133.09,180.71,138.94,181.05,143.73z M164.42,159.11 c0.1-0.04,0.18-0.09,0.28-0.13c0.15-0.06,0.29-0.14,0.44-0.2c0.94-0.43,1.81-0.96,2.57-1.63c0.02-0.01,0.03-0.03,0.05-0.05 c2.64-2.32,4.22-5.88,4.83-9.45c1.3,2.65,0.8,5.73-1.03,8c-0.19,0.24-0.39,0.48-0.62,0.7c-0.46,0.45-0.95,0.84-1.48,1.17 c-1.25,0.8-2.67,1.25-4.13,1.45c-0.2,0.03-0.41,0.07-0.61,0.08C164.62,159.07,164.52,159.1,164.42,159.11z M179.82,91.05 c0.78,5.36,2.55,11.74,7.96,13.88c-5.2,0.96-8.38-5.46-9.41-9.8c-1.08-4.55-2-9.38-5.69-12.74c-0.49-0.44-0.98-0.15-0.49,0.29 c0.01,0.01,0.01,0.01,0.02,0.02c1.11,1.01,1.36,2.68,0.63,3.98c-0.55,0.98-1.35,1.8-2.32,2.4c0.97-3.84-0.66-7.82-3.93-10.1 c-2.9-2.02-6.39-2.41-9.72-1.73c0.22-0.09,0.45-0.19,0.67-0.28c3.94-1.38,8.13-1.85,12.24-1.38c2.81,0.49,5.45,1.46,7.08,4.09 C178.92,83,179.26,87.24,179.82,91.05z M169.54,88.76c-2.1-5.18-6.19-9.93-11.78-10.66c2.7-0.42,5.47-0.05,7.86,1.46 C168.76,81.53,170.41,85.18,169.54,88.76z M160.15,156.66c1.16,0.3,2.18,0.83,3.07,1.49c-1.43,0.33-2.98,0.27-4.42,0.05 c-0.22-0.63-0.49-1.23-0.8-1.81C158.71,156.39,159.43,156.47,160.15,156.66z M201.8,157.9c0.16,0.08,1.31,0.72,1.31,0.72 c-1.71,0.85-3.52,1.32-5.43,1.42c-1.87-0.94-3.94-1.47-6.1-1.55c-0.59-0.02-0.59,0.59,0,0.61c3.01,0.11,5.87,1.44,8.19,3.37 c-4.28-1.06-8.4,1.2-12.6,2.22c-3.64,0.88-7.42,0.39-10.69-1.24c-1.15-0.57-2.23-1.28-3.22-2.13c0.01,0,0.03,0,0.04-0.01 c0.07-0.01,0.14-0.02,0.21-0.03c0.99-0.18,1.89-0.49,2.76-0.85c0.94-0.39,1.84-0.83,2.74-1.31c0.82-0.44,1.65-0.89,2.52-1.31 C187.86,154.69,195.53,154.71,201.8,157.9z M200.56,148.34c-0.86,3.46-3.87,5.93-7.36,6.24c-2.93-0.21-5.88,0.14-8.71,1.03 c2.49-1.75,4.46-4.17,6.41-6.58c2.97-3.68,6.72-8.06,11.87-7.71C201.17,143.19,201.16,145.95,200.56,148.34z M205.6,114 c-0.61-0.21-0.98,0.28-0.27,0.81c6.22,4.6,9.15,13.13,6.29,20.43c-1.16,2.96-4.9,7.14-8.21,4.11c-2-1.84-0.26-4.7,0.82-6.54 c0.93-1.57,1.47-3.39,2.4-4.96c0.34-0.57-0.12-0.86-0.46-0.29c-0.45,0.74-0.92,1.49-1.4,2.24c-0.17-2.16-1.43-4.21-2.83-6.24 c0.3-2.27,1.02-4.37,2.81-6c0.57-0.52,0.47-0.96,0.23-1.08c-1.09-0.52-2.22-0.86-3.41-1.02c0,0,0,0,0,0 c0.91-1.64,1.51-3.43,1.81-5.29c1.97,1.66,4.12,3.12,6.42,4.33C208.39,114.65,206.99,114.48,205.6,114z M205.64,104.61 c0.69,3.18,1.75,6.47,4.1,8.7c-2.24-1.22-4.31-2.71-6.22-4.39c0.03-0.46,0.08-0.91,0.07-1.38c-0.06-3.95-1.64-8.53-4.85-11.03 c-0.82-0.64-1.87-1.07-2.94-1.22c-0.75-1.19-1.41-2.41-1.94-3.58c1.51,0.3,3.04,0.4,4.56,0.3c0.03,0.02,0.07,0.03,0.1,0.05 C203.75,93.88,204.62,99.93,205.64,104.61z M200.22,81.24c1.24,2.5,1.92,5.54,4.13,7.21c-5.59,1.62-10.79-2.3-14.95-5.64 c-2.72-2.19-5.48-4.38-8.65-5.71c3.33,0.3,6.67-0.03,9.85-0.97C194.53,75.64,198.44,77.64,200.22,81.24z M187.72,71.55 c-0.64,0.16-0.49,0.83,0.15,0.67c2.36-0.61,4.51-1.7,6.35-3.18c2.14-0.35,4.25-0.26,6.34,0.26c0,0-1.11,0.98-1.27,1.11 c-6.15,5.03-14.6,6.9-22.34,5c-3.3-0.81-6.2-2.03-9.68-1.9c-0.1,0-0.19,0.01-0.29,0.02c3.42-4.52,8.82-7.21,14.53-7.08 c4.87,0.11,9.96,1.61,14.43-0.59C193.84,68.55,191.01,70.71,187.72,71.55z M154.87,75.22c1.22-1.6,2.44-3.2,3.67-4.8 c1-1.31,1.95-2.97,3.2-4.05c2.27-1.96,5.11,0.92,3.12,3.18c-0.84,0.95-0.68,2.44,0.46,1.11c4.05-4.74,10.48-7.08,16.61-6.6 c4.32,0.34,8.59,1.47,12.89,1.21c-5.14,2.12-11.36-0.5-16.76,0.38c-4.21,0.68-8.04,2.86-10.86,6.01c-1.09,1.22-2.51,2.09-4.1,2.47 c-1.81,0.44-3.57,1.05-5.37,1.65c-1.71,0.57-3.37,1.3-4.94,2.19c0,0,0,0,0,0C153.47,77.05,154.17,76.14,154.87,75.22z M150.83,71.46c0.88-1.07,1.58-2.22,2.32-3.35c0.1,3.3-0.57,6.6-2.05,9.57c-0.75,1.5-1.67,3.09-3.2,3.9 c-1.13,0.6-3.02,0.59-3.68-0.75c-1.24-2.51,3.65-3.43,3.37-0.49c-0.06,0.66,0.63,0.78,0.69,0.12c0.17-1.76-1.22-3.16-2.72-3.14 C147.45,75.47,149.19,73.44,150.83,71.46z M131.45,73.74c0.03-0.05,0.04-0.1,0.06-0.14c4.53,2.69,9.87,2.9,14.41,0.96 c-2.16,2.24-4.79,4.28-7.74,5.08c-0.47,0.13-0.95,0.21-1.44,0.25c-1.39-1.94-3.38-3.45-5.77-4.31 C130.97,74.95,131.11,74.33,131.45,73.74z M82.44,68.18c0.64,2.79,2.26,4.43,4.34,5.54c0.15,0.34,0.32,0.64,0.54,0.91 c-4.37-1.45-7.94-4.78-9.58-9.3L82.44,68.18z M84.05,75.1c-5.22-0.79-10.9-3.61-11.15-9.32C75.68,69.88,79.54,73.1,84.05,75.1z M63.71,73.15c2.86-1.04,5.44-2.87,8.25-0.44c0.39,0.33,0.93-0.06,0.85-0.43c0.03-0.1,0.03-0.22-0.02-0.34 c-0.91-2.09-1.2-4.31-0.87-6.51c-0.02,6.19,5.71,9.46,11.28,10.51c-4.56,0.34-9.17,0.7-13.67,0.03c-2.73-0.4-5.52-1.19-8.06-2.38 C62.21,73.58,62.98,73.42,63.71,73.15z M63.12,79.1c-2.63-0.63-5.65-2.19-8.2-1.12c2.11-1.92,4.92-2.93,7.84-2.77 c3.51,1.35,7.27,1.97,11.03,2.1C70.6,79.24,66.77,79.98,63.12,79.1z M67.7,85.04c1.39-0.75,2.54-1.89,3.32-3.33 c1.94-1,3.6-2.5,4.79-4.38c2.47-0.03,4.92-0.24,7.38-0.43c-0.97,0.65-1.83,1.45-2.56,2.36C76.43,81.55,72.34,84.38,67.7,85.04z M79.07,81.7c-2.36,1.35-4.83,2.66-7.42,3.29c2.65-0.98,5.12-2.44,7.6-3.87c0.07-0.04,0.14-0.08,0.2-0.12 C79.32,81.24,79.18,81.46,79.07,81.7z M86.97,239.78c-0.07-0.08-0.07-0.2,0-0.29c0.07-0.08,0.19-0.1,0.28-0.05 c0.97,0.56,2.05,0.77,3.18,0.81c1.48,0.04,3.05-0.22,4.59-0.5c0.42-0.07,0.8-0.12,1.2-0.19c0.48-0.08,0.97-0.17,1.43-0.22 c0.04,0,0.08,0,0.12-0.01c1.41-0.14,2.83-0.08,4.24,0.13c0.52,0.08,1.03,0.18,1.54,0.3c0.93,0.22,1.85,0.5,2.75,0.87 c1.65,0.68,3.23,1.6,4.66,2.75c0.08,0.06,0.1,0.17,0.07,0.26c-0.04,0.09-0.13,0.16-0.23,0.14c-5.14-0.49-9.9-0.2-14.18,0.84 c-0.02,0-0.04,0.01-0.05,0.01c-0.01,0-0.01,0-0.02,0C92.8,244.36,89.39,242.64,86.97,239.78z M92.22,236.17V100.23v-0.54h3.76v0.54 v134.88c-0.33,0.07-0.66,0.12-0.99,0.21c-0.26,0.07-0.53,0.15-0.79,0.23c-0.07,0.02-0.13,0.04-0.19,0.06 C93.41,235.8,92.82,235.98,92.22,236.17z M101.36,232.27c0.14,0.05,0.27,0.14,0.4,0.2v2.52c-0.6-0.1-1.19-0.17-1.78-0.2 c-0.06,0-0.13-0.01-0.19-0.01c-0.6-0.02-1.19-0.01-1.78,0.04V100.24v-0.54h3.76v0.54v131.04 C100.61,231.4,99.59,231.65,101.36,232.27z M111.36,234.18c0.06,0.03,0.13,0.07,0.19,0.1c0.6,0.31,1.2,0.63,1.78,0.98 c0.08,0.05,0.16,0.1,0.24,0.14c0.52,0.32,1.03,0.66,1.54,1c0.08,0.05,0.16,0.11,0.24,0.16c1.07,0.73,2.12,1.51,3.16,2.29 c0.28,0.22,0.57,0.43,0.85,0.65c0.09,0.07,0.19,0.14,0.28,0.21c0.41,0.31,0.81,0.62,1.21,0.92c0.13,0.09,0.25,0.19,0.38,0.29 c3.07,2.32,5.96,3.95,8.82,4.99c0.11,0.04,0.17,0.16,0.14,0.28c-0.03,0.1-0.12,0.16-0.21,0.16c-0.02,0-0.04,0-0.05-0.01 c-3.98-0.99-7.56-3.37-10.66-5.7c-0.36-0.27-0.71-0.54-1.06-0.8l-0.38-0.29c-0.3-0.23-0.6-0.46-0.9-0.69 c-0.52-0.39-1.03-0.78-1.56-1.18c-0.08-0.06-0.16-0.12-0.24-0.18c-0.51-0.38-1.02-0.76-1.54-1.12c-0.08-0.06-0.16-0.11-0.24-0.16 c-0.59-0.41-1.18-0.81-1.78-1.19c-0.06-0.04-0.13-0.08-0.19-0.12c-0.59-0.36-1.18-0.71-1.78-1.03c-0.08-0.04-0.16-0.1-0.24-0.14 c-0.01-0.01-0.03-0.02-0.04-0.02c-0.1-0.05-0.15-0.18-0.1-0.29c0.03-0.06,0.08-0.1,0.14-0.11c0.05-0.01,0.09-0.02,0.14,0 c0.03,0.01,0.06,0.03,0.1,0.04C110.19,233.61,110.78,233.88,111.36,234.18z M109.58,232.39v-51.06v-6.4v-7.1v-1.06v-66.52v-0.55 h3.76v0.55v53.55v2.33v0.13v12.51v5.89v6.36v53.11c-0.59-0.33-1.18-0.63-1.78-0.92c-0.07-0.03-0.13-0.06-0.19-0.09 C110.78,232.85,110.18,232.61,109.58,232.39z M115.37,235.36v-56.13v-2.67v-6.24v-4.38v-4.76v-5.55v-0.97v-1.56v-52.84v-0.55h3.76 v0.55v52.32v1.01v1.35v0.93v2.42v1.07v5.38v0.74v0.37v0.71v0.35v2.13v0.39v1.42v2.82v2.75v5.89v2.17v53.56 c-0.22-0.17-0.43-0.33-0.65-0.5c-0.37-0.28-0.76-0.55-1.14-0.83c-0.06-0.05-0.13-0.09-0.19-0.14 C116.57,236.16,115.97,235.75,115.37,235.36z M123.8,238.74c-0.06,0.03-0.1,0.08-0.14,0.13h-2.51v-50.84v-1.94v-4.71v-2.69v-5.46 v-1.49v-1.9v-2.44v-0.84v-0.46v-0.41v-0.71v-1.85v-3.47v-1.02v-1.03v-2.05v-0.91v-1.28v-1.01v-52.11v-0.56h3.76v0.56v51.67v1.01 v0.97v0.95v4.12v0.81v3.81v1.19v0.62v0.95v2.45v3.46v5.83v1.61v6.52v1.53v2.68v1.29v46.4C124.51,238.34,124.12,238.56,123.8,238.74 z M124.11,240.65c0.87,0.92,1.73,1.85,2.6,2.77c-1.46-0.82-2.83-1.77-4.18-2.77H124.11z M109.34,234.64 c0.08,0.04,0.16,0.09,0.24,0.13c0.6,0.34,1.2,0.7,1.78,1.07c0.07,0.04,0.13,0.09,0.19,0.13c0.6,0.39,1.2,0.79,1.78,1.21 c0.08,0.06,0.16,0.11,0.24,0.17c0.52,0.37,1.03,0.74,1.54,1.12c0.08,0.06,0.16,0.12,0.24,0.18c0.1,0.07,0.19,0.14,0.29,0.22 c0.46,0.35,0.93,0.7,1.39,1.05c0.32,0.25,0.65,0.49,0.98,0.74c2.91,2.2,5.93,4.38,9.18,5.68c0.11,0.04,0.16,0.16,0.13,0.27 c-0.03,0.1-0.12,0.16-0.21,0.16c-0.01,0-0.03,0-0.04,0c-1.8-0.33-3.61-0.71-5.37-1.09c-2.73-0.58-5.55-1.18-8.35-1.57 c-0.07-0.01-0.14-0.06-0.17-0.13c-0.55-1.19-1.27-2.31-2.1-3.32c-0.53-0.64-1.12-1.23-1.75-1.79c-0.44-0.39-0.9-0.77-1.39-1.11 c-0.04-0.03-0.06-0.06-0.08-0.1c-0.02-0.05-0.05-0.1-0.07-0.15c-0.07-0.18-0.16-0.34-0.24-0.51c-0.46-0.98-1.06-1.87-1.78-2.65 c-0.07-0.07-0.13-0.15-0.19-0.22c-0.4-0.4-0.82-0.78-1.28-1.11c-0.09-0.06-0.12-0.18-0.07-0.28c0.05-0.1,0.16-0.15,0.26-0.12 c0.37,0.1,0.73,0.23,1.09,0.36c0.06,0.02,0.13,0.04,0.19,0.06c0.6,0.21,1.2,0.45,1.78,0.72c0.08,0.04,0.16,0.07,0.24,0.1 C108.32,234.1,108.83,234.36,109.34,234.64z M107.55,100.24v67.6v0.47v5.43v5.01v53c-0.59-0.15-1.18-0.27-1.78-0.36 c-0.06-0.01-0.13-0.01-0.19-0.02c-0.59-0.08-1.18-0.14-1.78-0.16V100.24v-0.55h3.76V100.24z M105.58,235.64 c0.07,0.09,0.13,0.18,0.19,0.27c0.12,0.17,0.26,0.34,0.37,0.51c-0.12-0.06-0.25-0.1-0.37-0.16c-0.06-0.03-0.13-0.06-0.19-0.09 c-0.58-0.26-1.17-0.49-1.78-0.69v-1.75C104.47,234.3,105.07,234.95,105.58,235.64z M93.9,245.43c-2.97,0.99-5.61,2.29-7.82,3.87 c-0.31,0.22-0.61,0.44-0.91,0.67c-1.13,0.89-1.32,0.98-2.67,2.4c-0.02,0.02-0.37,0.32-0.71,0.45c-1.38,0.5-2.94,0.02-3.92-1.08 c-0.01-0.02-0.03-0.03-0.04-0.05c-0.05-0.06-0.07-0.14-0.05-0.22c0.03-0.08,0.09-0.14,0.17-0.15c2.7-0.51,4.75-2.15,6.93-3.89 c1.75-1.4,3.56-2.84,5.73-3.63c0.06,0,0.12,0.01,0.18,0.01c0.99,0.52,2.04,0.92,3.11,1.19c0.1,0.02,0.16,0.11,0.17,0.21 S93.99,245.4,93.9,245.43z M106.53,258.48c0,0-0.01,0-0.01,0c-0.12-0.01-0.21-0.1-0.21-0.22c-0.05-2.88,0.7-5.71,2.19-8.19 c0.05-0.09,0.07-0.18,0.06-0.27c-0.01-0.04,0-0.08,0.01-0.11c0.05-0.12-0.02-0.29-0.16-0.4c-0.08-0.06-0.28-0.18-0.51-0.03 c-3.38,2.23-6.03,0.69-8.83-0.93c-0.56-0.33-1.14-0.66-1.73-0.97c-0.92-0.48-1.82-0.78-2.68-0.89c-0.1-0.01-0.18-0.1-0.19-0.2 c-0.01-0.1,0.05-0.2,0.15-0.23c3.27-1.04,6.94-1.63,10.62-1.69c5.73-0.09,11.49,1.09,17.05,2.24l0.23,0.05 c0.11,0.02,0.19,0.12,0.18,0.24c-0.01,0.11-0.1,0.2-0.21,0.21c-3.38,0.19-14.51,1.56-15.74,11.21 C106.74,258.4,106.64,258.48,106.53,258.48z M108,258.11c-0.04,0.05-0.1,0.07-0.17,0.07c-0.03,0-0.07-0.01-0.1-0.02 c-0.09-0.04-0.14-0.14-0.12-0.24c1.26-7.23,8.99-9.96,15.8-10.11c0,0,0,0,0,0c0.11,0,0.2,0.08,0.22,0.19 c0.02,0.11-0.05,0.22-0.16,0.25C117.49,250.03,112.13,253.44,108,258.11z M132.89,249.1c-5.13,0.63-10.31,1.72-12.44,7.49 c-0.02,0.06-0.06,0.1-0.12,0.13l-6.4,2.83c-0.03,0.01-0.06,0.02-0.09,0.02c-0.06,0-0.12-0.02-0.16-0.07 c-0.06-0.07-0.08-0.17-0.03-0.26c3.68-7.1,11.24-11.26,19.23-10.58c0.11,0.01,0.2,0.1,0.2,0.22 C133.09,248.99,133,249.08,132.89,249.1z M139.49,246.4c-0.35,0.01-0.69,0.02-1.03,0.02c-3.21,0-6.35-0.65-9.35-1.95 c-0.03-0.01-0.05-0.03-0.08-0.05l-3.54-3.77l-0.56-0.6c-0.06-0.06-0.08-0.15-0.04-0.24c0.03-0.08,0.11-0.14,0.19-0.14 c0.56-0.03,1.1,0.03,1.62,0.13c2.03,0.39,3.83,1.61,5.57,2.83c0.33,0.23,0.65,0.46,0.98,0.68c2.1,1.43,4.15,2.3,6.27,2.65 c0.11,0.02,0.19,0.12,0.19,0.23C139.69,246.3,139.6,246.39,139.49,246.4z M129.97,236.5c0.03-0.02,0.06-0.04,0.09-0.07 c0.05-0.05,0.13-0.07,0.2-0.06c2.13,0.45,4.43,1.95,6.86,3.54c3.47,2.27,7.05,4.61,10.28,3.87c0.11-0.02,0.23,0.04,0.26,0.15 c0.04,0.11-0.02,0.23-0.12,0.27c-1.83,0.78-3.75,1.17-5.66,1.17c-1.58,0-3.14-0.27-4.64-0.81c-1.66-0.6-3.18-1.65-4.66-2.66 c-1.93-1.33-3.76-2.55-5.88-2.92c-0.1-0.02-0.2-0.06-0.3-0.07c-0.1-0.01-0.17-0.09-0.19-0.18c-0.02-0.09,0.03-0.19,0.11-0.24 l0.38-0.21L129.97,236.5z M120.91,98.47c-0.51,0-1.03,0-1.54,0c-1.41,0-2.83,0-4.24,0c-0.51,0-1.03,0-1.54,0c-1.41,0-2.83,0-4.24,0 c-0.51,0-1.03,0-1.54,0c-1.41,0-2.83,0-4.24,0c-0.51,0-1.03,0-1.54,0c-1.41,0-2.83,0-4.24,0c-0.51,0-1.03,0-1.54,0 c-1.93,0-3.86,0-5.79,0c-0.5,0-1,0-1.51,0v-1.67h0.03c0-0.18,0.01-0.36-0.02-0.54c-0.1-0.78-0.25-1.45-1.41-1.6 c-4.49-0.59-7.03-2.82-7.76-6.54c-0.17-0.86-0.17-1.78-0.03-2.69c0.09-0.63,0.27-1.26,0.5-1.88c0.24-0.66,0.54-1.3,0.91-1.91 c0.42-0.69,0.92-1.34,1.48-1.92c0.27-0.28,0.55-0.55,0.85-0.8c0.32-0.26,0.64-0.51,0.99-0.73c1.29-0.8,2.69-1.25,4.19-1.47 c0.39-0.06,0.94,0.09,1.28-0.16c0.13-0.09,0.22-0.24,0.27-0.48c0.01-0.05,0.03-0.1,0.03-0.16c0.02-0.22,0.02-0.44-0.01-0.65 c-0.01-0.08-0.04-0.14-0.05-0.21c-0.11-0.51-0.38-0.94-0.95-1.16c-0.2-0.08-0.36-0.21-0.49-0.37c-0.32-0.36-0.49-0.88-0.55-1.33 c0.8,0,1.28-0.01,1.94-0.01c2.85-0.02,5.69-0.03,8.54-0.04c0.36,0,0.72,0,1.08,0c1.2,0,2.41-0.02,3.61-0.01 c2.79,0.01,5.57,0.02,8.36,0.03c0.06,0,0.12,0,0.18,0c5.29,0.02,10.58,0.04,15.87,0.06c-0.01,0.78-0.17,1.38-1.04,1.73 c-0.86,0.34-1.08,1.24-0.93,2.08c0.18,1.02,1.1,0.52,1.68,0.57c0.09,0.01,0.18,0.04,0.27,0.05c1.45,0.17,2.78,0.58,3.96,1.19 c0.93,0.48,1.77,1.08,2.5,1.8c1.08,1.06,1.89,2.36,2.38,3.81c0.35,1.04,0.57,2.14,0.56,3.31c0,0.55-0.07,1.08-0.17,1.59 c-0.05,0.26-0.13,0.51-0.2,0.76c-0.4,1.33-1.13,2.49-2.13,3.4c-0.33,0.3-0.69,0.58-1.08,0.82c-0.86,0.54-1.83,0.94-2.92,1.14 c-2.73,0.49-2.72,0.49-2.62,3.45c0,0.03,0.01,0.06,0,0.09v0.45h-0.22c0,0.01-0.01-0.01-0.01,0c-0.36,0-0.71,0-1.07,0 C124.77,98.47,122.84,98.47,120.91,98.47z M126.7,191.54v-2.03c1.39,1.14,3.01,1.96,4.91,2.22 C129.92,192.49,128.25,192.28,126.7,191.54z M140.11,204.18c-0.47-3.5-1.03-7.1-2.97-10.1c-0.92-1.42-2.1-2.57-3.46-3.56 c-1.74-1.27-3.82-2.19-4.8-4.19c-0.29-0.59-0.89-0.28-0.6,0.3c0.9,1.85,2.46,3,4.04,4.15c-2.31-0.15-4.12-1.09-5.61-2.49v-14.47 c3.27,3.16,5.79,7.08,7.8,11.2c1.52,3.1,2.88,6.31,4.09,9.55C139.76,197.66,140.58,200.92,140.11,204.18z M150.85,196.2 c-0.64-0.06,5.25,9.76,3.1,15.64c-1.42-4.3-7.6-7.31-9.63-11.19c-0.48-0.97-0.93-0.76-1.01-0.11c-0.19,1.69-1.01,3.16-2.27,4.19 c0.51-2.92,0.06-5.83-0.85-8.67c-1.2-3.72-2.81-7.38-4.49-10.9c-0.39-0.82-0.79-1.59-1.2-2.34c-0.14-0.25,0.23-0.47,0.39-0.23 c1.28,2,2.49,4.05,3.72,6.04c2.65,4.3,5.57,8.44,9.72,11.43c0.53,0.38,0.93-0.02,0.4-0.4c-4.89-3.53-7.87-8.75-10.88-13.94 c4.62,4.85,10.58,8.36,17.16,9.97C153.68,196.16,152.29,196.34,150.85,196.2z M149.81,177.14c-0.17,1.22-0.45,2.41-0.86,3.6 c-0.94-0.05-1.89-0.16-2.82-0.32c-0.51-0.09-1.02-0.19-1.52-0.31c0.36,0.43,0.69,0.88,1.01,1.35c0.5,0.75,0.95,1.54,1.37,2.34 c0.08,0.15,0.16,0.31,0.24,0.46c0.51,1,0.98,2.01,1.45,2.95c1.42,2.88,3.21,5.78,5.99,7.37c-8.84-2.32-16.51-8.24-21.02-16.21 c2.44,3.07,5.61,5.4,9.34,6.81c0.61,0.23,1.38,0.17,0.77-0.06c-3.57-1.35-7.1-4.51-9.42-7.49c0.11,0,0.21-0.03,0.32-0.04 c0.87-0.06,1.73-0.19,2.58-0.37c-0.82-0.46-1.62-0.94-2.39-1.46c-1.62-1.1-3.2-2.35-4.73-3.72c2.9,1.82,6.14,2.97,9.51,3.41 c0.66,0.09,1.34,0.13,2.01,0.16c2.8,0.12,5.64-0.25,8.42-1.16C150.01,175.34,149.93,176.24,149.81,177.14z M150.82,177.08 c0.08-0.6,0.14-1.21,0.18-1.82c0.05-0.67,0.08-1.35,0.1-2.02c0.05-1.46,0.06-2.92,0.11-4.39c0.02-0.49,0.04-0.99,0.07-1.48 c0.01-0.12,0.11-0.87,0.23-1.77c0.37-2.7,1.24-5.31,2.65-7.63c0.15-0.25,0.26-0.4,0.29-0.4c-0.21,1.17-2,7.87-1.88,11.15 c0.01,0.38-0.05,0.77-0.07,1.15c-0.1,1.77-0.2,3.53-0.53,5.21c-0.09,0.46-0.19,0.91-0.32,1.36c-0.06,0.21-0.13,0.41-0.2,0.61 c-0.26,0.75-0.57,1.47-1,2.15C150.62,178.49,150.73,177.78,150.82,177.08z M160.12,177.6c-0.45,0.83-0.95,1.64-1.49,2.42 c-1.11,1.59-2.41,3.05-3.87,4.34c-0.15,0.14-1.29,1.06-1.29,1.06c-0.11-1.28-0.04-2.55,0.17-3.8c0.07-0.39,0.14-0.78,0.24-1.17 c0.1-0.42,0.21-0.83,0.35-1.24c0.18-0.16,0.34-0.34,0.51-0.5c0.22-0.21,0.44-0.41,0.64-0.63c0.14-0.16,0.28-0.33,0.42-0.49 c0.27-0.31,0.53-0.62,0.78-0.96c0.69-0.95,1.29-1.99,1.77-3.1c0.26-0.6-0.36-0.85-0.63-0.25c-0.57,1.29-1.36,2.46-2.29,3.51 c0,0,0,0.01-0.01,0.01c0,0,0,0,0,0c-0.24,0.27-0.49,0.54-0.75,0.79c-0.05,0.05-0.11,0.1-0.16,0.15c-0.21,0.2-0.41,0.39-0.63,0.57 c-0.93,0.79-1.94,1.48-3.01,2.06c0.7-0.98,1.18-2.03,1.53-3.12c0.03-0.09,0.05-0.18,0.08-0.27c0.1-0.35,0.18-0.7,0.26-1.05 c0.4-1.8,0.54-3.7,0.66-5.6c0.02-0.35,0.05-0.7,0.07-1.06c0.07-0.96,0.47-4.74,0.62-5.68c0.71-4.49,1.24-5.61,1.24-5.61 c1.87,1.12,3.11,2.31,4.58,3.39c0.97,0.72,3.25,2.92,3.32,2.94c-0.25,1.3-0.21,6.07-1.51,9.68 C161.26,175.23,160.75,176.44,160.12,177.6z M171.53,192.18c-1.27-2.42-4.13-3.57-6.36-5.18c-2.77-1.99-4.12-5.3-3.76-8.56 c0.06-0.55,0.16-1.09,0.31-1.63c0.04-0.09,0.07-0.19,0.12-0.28c1.34-2.87,2.16-5.97,2.39-9.17c0.31,1.29,0.78,2.53,1.31,3.75 c0.28,0.65,0.58,1.3,0.9,1.94c0.62,1.23,1.29,2.45,1.97,3.65C171.01,181.3,174,186.99,171.53,192.18z M157.56,209.89 c-1.68-4.81,1.12-10.04,6.39-10.5c5.46-0.48,8.77,6.22,5.37,10.1c0.31-2.43-0.68-4.89-3.08-5.93c-2.64-1.14-5.57,0.29-6.65,2.88 c-1.04,2.49-0.1,5.38,1.75,7.21c1.52,1.5,3.42,2.26,5.43,2.57C162.73,216.1,158.95,213.88,157.56,209.89z M165.1,214.92 c-2.38-0.76-4.36-2.31-4.99-5.05c-0.54-2.37,0.72-5.15,3.2-5.78c3.24-0.83,5.32,2.15,5.19,4.99c-1.16-1.81-4.33-1.67-5.38,0.74 C162.15,212.02,163.35,213.8,165.1,214.92z M175.65,212.07c-1.31,1.11-2.83,2-4.48,2.51c-1.19,0.36-2.53,0.66-3.78,0.38 c-1.1-0.24-2.64-1.43-1.79-2.69c1.12-1.66,3.29-0.17,4.79-0.23c1.58-0.06,3.17-0.72,4.35-1.76c2.26-1.98,3.98-5.31,3.13-8.11 c0.65,0.94,1.04,2.07,1.05,3.29C178.93,208.06,177.61,210.4,175.65,212.07z M182.16,193.97c-0.36-0.17-0.71-0.35-1.06-0.55 c-0.5-0.28-0.97-0.58-1.43-0.9c0.16,0.49,0.3,0.99,0.43,1.49c1.06,4.09,1.09,8.39-0.41,12.42c0.34-3.52-1.82-6.85-5.35-7.42 c0.82-3.04,0.98-6.12,0.61-9.09c-0.51-4.06-2.03-7.92-4.48-11.2c1.49,1.41,2.86,2.89,4.09,4.42c0.58,0.72,1.13,1.48,1.65,2.26 c0.12-0.86,0.18-1.73,0.17-2.6c0-0.11,0.01-0.21,0.01-0.32c3.15,2.08,6.59,5.35,8.22,8.79c0.28,0.59,0.27-0.18-0.01-0.78 c-1.7-3.6-4.28-6.58-7.54-8.77c8.3,3.85,14.82,11.02,17.84,19.65c-1.81-2.64-4.84-4.2-7.83-5.38c-0.97-0.38-2.01-0.78-3.05-1.21 C183.39,194.54,182.77,194.27,182.16,193.97z M254.65,213.36c0.07,0,0.15,0.01,0.22,0.01c-0.08,0.14-5.72,7.83-7.32,12.7 C247.81,221.12,248.88,214.41,254.65,213.36z M244.09,216.07c1.21-0.79,2.41-1.41,3.67-1.85c1.43-0.5,2.92-0.79,4.56-0.87 c-2.78,1.51-4.48,4.6-5.1,7.78c-0.44,2.26-0.43,4.58-0.57,6.87c-0.17,2.93-0.6,6.44-2.16,8.98c0.02-0.17,0.03-0.34,0.04-0.5 c0.25-3.61-0.83-6.71-2.32-9.93c-1.05-2.27-2.07-4.69-1.09-7.16C241.69,217.95,242.83,216.9,244.09,216.07z M236.6,221.54 c0.67-0.95,1.44-1.83,2.31-2.61c1.03-0.93,2.14-1.75,3.32-2.46c-1.14,1.01-2,2.26-2.28,3.89c-0.62,3.63,1.96,6.77,3.02,10.03 c2.02,6.25-0.08,12.71-4.62,16.79c-0.08,0.07-0.17,0.15-0.25,0.22c-0.01,0.01-0.02,0.02-0.03,0.02c-0.19,0.16-0.39,0.33-0.59,0.48 c-1.33,1.04-2.84,1.89-4.5,2.49c1.93-1.66,3.32-3.95,3.79-6.69c0.61-3.52-0.74-6.42-1.99-9.62 C233.12,229.83,234.06,225.17,236.6,221.54z M230.26,240.61c1.12-3.58,1.6-7.32,2.52-10.95c0.05-0.19,0.1-0.38,0.15-0.56 c-0.07,3.02,1.33,5.59,2.35,8.4c2.73,7.5-2.67,15.31-10.55,14.92c1.11-0.41,2.16-1,3.12-1.81 C230.81,248.14,231.9,244.03,230.26,240.61z M207.08,220.65c-5.23,1.89-10.45-1.12-13.64-5.2c-0.66-0.85-1.26-1.74-1.82-2.66 c2.65,3.06,6.09,5.31,10.39,5.69c5.26,0.47,10.5-2.9,11.49-8.02C213.84,214.83,211.42,219.08,207.08,220.65z M200.91,217.5 c-2.19-0.4-4.12-1.31-5.8-2.54c0.27,0.17,0.55,0.33,0.84,0.47c3.45,1.78,7.21,1.59,10.59-0.39c0.46-0.27,0.34-0.7-0.13-0.43 c-3.38,1.97-6.61,1.76-9.45,0.35c5.38,1.59,12.84-2.11,12.57-9.78l2.87-0.63c0.06,0.01,0.12,0.01,0.19,0.02 C214.3,214.08,206.66,218.55,200.91,217.5z M189.29,205.39c5.25,3.01,11.49,2.17,17.3,0.51c0.67-0.15,1.34-0.31,2.01-0.48 c0.31,4.76-4.57,8.88-8.44,9.05c-4.25,0.18-7.19-2.56-9.2-6.03C190.38,207.44,189.83,206.42,189.29,205.39z M197.02,219.93 c4,2.63,9.11,2.94,13.07,0.05c3.66-2.68,5.94-8.29,3.5-15.28c5.47,0.91,9.24,4.54,11.83,9.46c2.04,3.88,4.28,8.17,8.76,9.39 c-0.26,0.44-0.5,0.89-0.73,1.35c-0.71,1.44-1.25,2.96-1.67,4.51c-0.49,1.83-0.55,3.78-1.13,5.59c-0.88,3.26-2.63,4.91-1.78,2.53 c-0.18,0.15-0.36,0.3-0.55,0.44c-4.2,3.21-9.72,4.67-14.94,3.91c-0.49-1.35-1.3-2.48-2.4-3.34c1.1-0.11,2.17-0.41,3.19-0.87 c0.07-0.01,0.3-0.13,0.36-0.16c0.39-0.19,0.21-0.37-0.15-0.75c-1.88-1.71-2.26-4.47-4.31-6.04c-0.72-0.55-1.52-0.89-2.36-1.06 c1.14-0.48,2.16-1.2,3-2.16c0.15-0.17,0.36-0.32,0.26-0.47c-0.02-0.1-0.31-0.24-0.44-0.31c-3.79-2-8.3-1.58-12.08-3.59 c-3.73-1.97-6.39-5.55-7.34-9.61C192.65,216.03,194.51,218.28,197.02,219.93z M204.68,235.29c1.13,1.29,2.03,2.75,2.48,4.51 c-0.84-0.45-1.65-0.97-2.42-1.53C204.92,237.26,204.9,236.26,204.68,235.29z M206.62,236.51c-1.32-2.06-3.27-3.66-5.15-5.19 c-0.97-0.79-1.95-1.57-2.88-2.41c-0.46-0.42-0.91-0.85-1.33-1.3c-0.4-0.43-0.74-1.04-1.19-1.41c2.4,2.03,5.6,3.33,7.89,5.42 c2.59,2.36,5.04,4.99,8.43,5.81c-0.82,0.22-1.95,0.65-2.81,0.63c-0.95-0.02-0.4,0.26,0.17,0.63c1.19,0.76,2.13,1.76,2.68,3.03 c-0.61-0.12-1.22-0.27-1.83-0.45c-0.86-0.27-1.69-0.6-2.49-0.98c-0.15-0.07-0.45-1.7-0.56-1.96 C207.31,237.69,206.99,237.08,206.62,236.51z M205.41,230.03c2.76-0.5,4.67,1.32,5.95,3.67c0.6,1.1,1.08,2.15,1.86,3.07 c-4.16-0.64-6.78-4.27-9.91-6.81c-1.05-0.85-2.25-1.55-3.44-2.25c3.22,0.7,6.41-0.85,9.58-0.11c-1.16,1.04-2.59,1.87-4.18,2.04 C205.09,229.64,204.95,230.11,205.41,230.03z M196.43,222.86c3.53,2.51,7.79,2.42,11.68,3.74c-1.97-0.03-3.9,0.6-5.93,0.59 c-4.62-0.01-7.07-3.37-8.73-7.13C194.3,221.11,195.3,222.05,196.43,222.86z M200.23,245.55c-0.57-2.1-0.53-5.12-0.98-7.86 c0.33,0.58,0.68,1.16,1.03,1.72c0.63,1.01,1.31,2,2.03,2.97c-0.74,1.46-1.45,3.07-1.6,4.67 C200.54,246.56,200.37,246.06,200.23,245.55z M211.44,258.21c-0.54-0.23-1.06-0.47-1.58-0.75c-1.06-0.56-2.06-1.21-3-1.95 c-2.04-1.61-4.08-3.71-5.04-6.18c-0.39-1-0.37-2.1-0.14-3.14c0.08-0.36,1.27-2.97,1.19-3.08c1.63,2.1,3.45,4.06,5.46,5.78 c-0.21,4.01,1.54,7.62,4.65,9.88C212.6,258.5,211.89,258.4,211.44,258.21z M213.77,258.31c-2.9-1.98-4.6-5.14-4.62-8.74 c1.19,0.95,2.44,1.83,3.74,2.6C212.93,254.18,212.76,256.56,213.77,258.31z M207.36,243c-4.01-2.97-10.24-12.12-11.76-16.07 c2.1,2.66,5.16,4.59,7.65,6.9c0.65,1.2,0.9,2.53,0.73,3.87c-1.04-0.82-1.62-1.4-2.92-2.69c1.61,2.53,3.62,4.8,5.98,6.7 c3.46,2.78,8.26,5.45,12.8,4.25c0.52-0.14,0.73,0.08,0.22,0.21C215.58,247.35,210.91,245.63,207.36,243z M226.86,246.94 c1.35-1.48,2.3-3.24,2.99-5.11c1.08,3.32-0.49,6.96-3.56,8.9c-3.39,2.15-7.48,1.91-11.14,0.68 C219.33,251.81,223.69,250.42,226.86,246.94z M221.04,254.5c-1.37-0.33-2.68-0.76-3.94-1.28c0.69,0.03,1.37,0.09,2.04,0.17 c0.39,0.06,0.77,0.12,1.16,0.16c1.84,0.31,3.64,0.82,5.4,1.53C224.14,255.06,222.58,254.87,221.04,254.5z M227.62,255.06 c-0.02-0.02-0.04-0.04-0.07-0.06c-1.06-0.51-2.15-0.94-3.25-1.3c1.78-0.09,3.55-0.37,5.26-0.84c1.75-0.37,3.47-0.91,5.14-1.61 c3.39-1.44,6.45-4.15,10.19-4.56C240.47,251.55,234.15,254.67,227.62,255.06z M247.8,242.75c-0.75,1.38-2.24,3.05-2.24,3.05 c-2.74,0.14-5.16,1.47-7.46,2.78c2.08-1.57,3.98-3.35,5.63-5.39c2.11-2.61,3.57-6.2,6.75-7.65 C249.95,238.04,249.06,240.42,247.8,242.75z M250.61,234.43c-0.09,0.11-0.22,0.17-0.34,0.24c-2.31,1.23-3.97,3.32-5.45,5.52 c-0.34,0.51-0.68,1.03-1.01,1.55c0.67-1.42,1.42-2.82,2.02-4.27c0.62-1.51,1.09-3.07,1.62-4.61c0.79-2.24,1.98-4.52,4.07-5.66 C251.36,229.45,250.73,234.29,250.61,234.43z M251.64,226.23c-2.42,1.09-3.61,3.07-4.47,5.29c1.1-5.62,2.91-10.65,6.33-15.08 C252.39,219.57,251.97,222.89,251.64,226.23z M280.74,226.3c-3.24-1.12-6.73-0.45-10.17-0.03c-2.41,0.29-4.75,0.16-6.93-0.47 c3.25-1.59,6.66-2.74,10.22-3.44C276.32,223.29,278.64,224.6,280.74,226.3z M271.99,221.73c-3.37,0.8-6.6,2-9.68,3.6 c-1.84-0.74-3.54-1.86-5.02-3.44C262.12,220.37,267.24,220.35,271.99,221.73z M269.43,229.93c-4.55-0.07-8.63-2.3-11.25-5.84 c1.33,1.07,2.82,1.92,4.41,2.5c1.98,2.75,5.36,2.78,8.53,3.21C270.56,229.89,270,229.94,269.43,229.93z M273.57,229.25 c-2.82-0.71-6.66-0.31-9.06-2.1c0.82,0.18,1.66,0.29,2.51,0.32c4.65,0.17,9.68-1.99,14.08,0.03 C278.58,227.47,276.09,228.52,273.57,229.25z"></path> <path class="st0" d="M99.29,76.83c0.17,0,0.34,0,0.51,0c0.91,0,1.82,0,2.73,0c0.69,0,1.39,0,2.08,0c1.16,0,2.31,0,3.47,0 c0.29,0,0.58,0,0.87,0c0.4,0,0.8,0,1.19,0c0.06,0,0.12,0,0.18,0c0.58,0,1.16,0,1.73,0c4.2,0,8.4,0,12.6,0c0-0.13,0-2.04,0-2.17 c-4.23,0-8.46,0-12.69,0c-0.42,0-0.85,0-1.27,0c-0.09,0-0.18,0-0.27,0c-1.5,0-3,0-4.5,0c-2.62,0-5.25,0-7.87,0 c-0.7,0-1.39,0-2.09,0c-1.3,0-2.61,0-3.91,0c-0.18,0-0.36,0-0.54,0c0,0.1,0,1.36,0,1.91c0,0.13,0,0.23,0,0.26c0.23,0,0.46,0,0.7,0 C94.57,76.83,96.93,76.83,99.29,76.83z"></path> <path class="st0" d="M123.91,91.21c-0.39-0.77-0.58-1.56-0.6-2.32c-0.01-0.28,0.03-0.54,0.07-0.81c0.07-0.54,0.22-1.06,0.45-1.53 c0.28-0.56,0.67-1.05,1.16-1.45c0.17-0.14,0.35-0.25,0.54-0.36c0.5-0.3,1.05-0.54,1.69-0.63c1.21-0.17,2.33,0.21,3.07,0.97 c0.39,0.41,0.69,0.92,0.82,1.53c0.41,1.91-0.45,2.99-2.35,3.29c-0.13,0.02-0.25,0.07-0.36,0.11c-0.39,0.14-0.68,0.39-0.78,0.75 c-0.04,0.16-0.06,0.33-0.03,0.53c0.1,0.9,0.76,1.17,1.62,1.15c0.4-0.01,0.78-0.09,1.16-0.21c0.46-0.15,0.88-0.37,1.28-0.66 c0.88-0.63,1.57-1.55,1.92-2.61c0.06-0.19,0.1-0.39,0.14-0.59c0.11-0.52,0.16-1.06,0.09-1.6c-0.1-0.8-0.38-1.55-0.76-2.23 c-0.96-1.69-2.71-2.89-4.79-3.13c-0.15-0.02-0.29-0.05-0.44-0.06c-2.42-0.12-4.78,0.12-7.02,0.97c-0.45,0.17-0.89,0.37-1.32,0.59 c-0.17,0.08-0.34,0.16-0.5,0.25c-0.9,0.5-1.82,0.97-2.75,1.42c-0.34,0.17-0.69,0.33-1.03,0.49c-0.32,0.15-0.64,0.31-0.96,0.45 c-0.07,0.03-0.15,0.06-0.22,0.09c-0.11,0.05-0.22,0.09-0.33,0.13c-0.06,0.02-0.12,0.05-0.18,0.07c-1.1,0.4-2.24,0.57-3.41,0.1 c-0.07-0.03-0.17-0.04-0.27-0.05c-0.45-0.05-1.04-0.04-0.2-0.94c0.04-0.05,0.06-0.1,0.09-0.15c0.19-0.31,0.16-0.66-0.01-1.01 c-0.02-0.03-0.04-0.07-0.06-0.1c-0.2-0.37-0.52-0.74-0.8-1.03c-0.01-0.01-0.02-0.01-0.03-0.02c-0.44-0.43-0.89-0.17-1.14,0.25 c-0.07,0.11-0.15,0.23-0.23,0.34c-0.41,0.58-0.88,1.19-0.12,1.96c0.01,0.01,0.01,0.02,0.02,0.02c0.12,0.13,0.18,0.31,0.24,0.43 c-0.06,0.03-0.12,0.04-0.18,0.07c-0.27,0.12-0.54,0.21-0.81,0.28c-0.03,0.01-0.07,0.01-0.1,0.02c-0.26,0.06-0.51,0.11-0.77,0.13 c-0.28,0.03-0.56,0.03-0.84,0.02c-0.08,0-0.16-0.01-0.24-0.01c-0.23-0.02-0.46-0.06-0.69-0.11c-0.65-0.13-1.29-0.36-1.92-0.64 c-0.18-0.08-0.36-0.16-0.54-0.25c-0.51-0.25-1.01-0.53-1.52-0.79c-0.04-0.02-0.07-0.04-0.11-0.06c-0.35-0.18-0.7-0.36-1.04-0.54 c-0.19-0.1-0.39-0.2-0.58-0.3c-0.12-0.07-0.25-0.11-0.37-0.18c-0.48-0.26-0.97-0.49-1.47-0.7c-0.42-0.17-0.85-0.3-1.27-0.44 c-1.54-0.49-3.13-0.75-4.77-0.77c-0.1,0-0.21-0.01-0.31-0.01c-0.14,0-0.27-0.02-0.41-0.01c-0.86,0.03-1.66,0.17-2.4,0.42 c-0.65,0.22-1.25,0.52-1.78,0.93c-0.27,0.21-0.52,0.45-0.76,0.71c-0.28,0.31-0.54,0.66-0.77,1.05c-0.06,0.1-0.12,0.18-0.18,0.28 c-0.2,0.38-0.34,0.76-0.45,1.16c-0.09,0.33-0.13,0.65-0.16,0.98c-0.01,0.14-0.05,0.29-0.05,0.43c0,0.39,0.05,0.77,0.13,1.15 c0.44,2.11,2.1,3.87,4.35,4.01c0.82,0.05,1.57-0.08,1.75-0.99c0.09-0.45,0-0.79-0.22-1.05c-0.22-0.26-0.57-0.42-1.01-0.48 c-0.99-0.15-1.67-0.54-2.05-1.14c-0.21-0.33-0.32-0.73-0.34-1.2c-0.01-0.24,0-0.5,0.04-0.78c0.01-0.07,0.04-0.13,0.05-0.19 c0.14-0.64,0.48-1.19,0.95-1.62c0.29-0.26,0.62-0.47,0.98-0.61c0.48-0.2,1.01-0.3,1.57-0.26c0.33,0.03,0.63,0.11,0.93,0.18 c0.52,0.13,1.01,0.32,1.43,0.6c0.43,0.3,0.78,0.7,1.08,1.16c0.17,0.27,0.35,0.54,0.47,0.87c0.01,0.01,0.01,0.03,0.01,0.04 c0.27,0.73,0.38,1.44,0.35,2.13c-0.02,0.35-0.09,0.7-0.18,1.04c-0.22,0.81-0.63,1.59-1.23,2.32c-0.43,0.53-0.96,0.97-1.44,1.45 c2.56-0.29,4.12-1.74,4.79-4.06c0.04-0.13,0.05-0.25,0.08-0.38c0.09-0.38,0.16-0.75,0.19-1.1c0.09-0.9,0-1.73-0.26-2.48 c-0.11-0.31-0.24-0.61-0.4-0.9c-0.27-0.47-0.61-0.9-1.01-1.3c-0.25-0.25-0.52-0.49-0.82-0.72c-0.12-0.09-0.23-0.19-0.36-0.28 c-0.11-0.07,0.21-0.02,0.72,0.1c0.37,0.09,0.83,0.23,1.37,0.41c0.58,0.19,1.22,0.43,1.83,0.71c0.35,0.16,0.69,0.33,1.01,0.51 c0.21,0.12,0.42,0.23,0.6,0.36c0.29,0.2,0.59,0.4,0.88,0.6c0.09,0.06,0.18,0.12,0.27,0.18c0.42,0.28,0.85,0.55,1.29,0.8 c1.02,0.6,2.08,1.1,3.21,1.35c0.3,0.07,0.62,0.1,0.93,0.13c0.09,0.01,0.17,0.03,0.26,0.04c0.01,0,0.02,0,0.03,0 c0.38,0.02,0.77,0,1.16-0.03c0.14-0.01,0.28-0.03,0.42-0.06c0.27-0.04,0.54-0.1,0.81-0.17c0.12-0.03,0.24-0.04,0.36-0.08 c-0.07,0.24-0.13,0.43-0.2,0.64c-0.06,0.2-0.13,0.41-0.19,0.59c-0.05,0.17-0.09,0.32-0.14,0.48c-0.05,0.16-0.1,0.33-0.14,0.49 c-0.02,0.06-0.04,0.13-0.05,0.19c-0.12,0.5,0.02,0.95,0.52,1.2c0.32,0.16,0.66,0.15,0.94-0.05c0.01-0.01,0.02,0,0.02-0.01 c0.18-0.13,0.29-0.29,0.36-0.46c0.05-0.11,0.08-0.23,0.09-0.35c0.01-0.14,0.01-0.29-0.02-0.45c-0.04-0.24-0.15-0.47-0.27-0.69 c-0.22-0.44-0.46-0.89-0.25-1.53c0.14,0.04,0.28,0.05,0.42,0.09c0.1,0.02,0.19,0.04,0.29,0.06c0.27,0.05,0.55,0.11,0.81,0.13 c0.57,0.05,1.13,0.02,1.66-0.07c0.18-0.03,0.37-0.04,0.55-0.08c0.39-0.09,0.78-0.21,1.16-0.35c0.32-0.12,0.64-0.27,0.95-0.42 c0.16-0.08,0.33-0.16,0.49-0.25c0.47-0.25,0.94-0.53,1.4-0.82c0.28-0.18,0.56-0.36,0.84-0.54c0.2-0.13,0.4-0.26,0.6-0.4 c0.74-0.49,1.88-0.98,3-1.4c0.54-0.2,1.07-0.39,1.55-0.55c1.03-0.34,1.79-0.56,1.79-0.56c-0.07,0.05-0.14,0.1-0.2,0.15 c-0.29,0.22-0.55,0.45-0.8,0.67c-0.3,0.27-0.57,0.54-0.81,0.81c-0.68,0.76-1.13,1.55-1.36,2.37c-0.14,0.49-0.2,1-0.19,1.53 c0,0.03,0.01,0.07,0.01,0.11c0.01,0.22,0.01,0.43,0.05,0.66c0.05,0.33,0.12,0.66,0.22,1c0.76,2.61,2.91,4.34,6.33,4.67 C125.65,93.58,124.6,92.57,123.91,91.21z"></path> </g> </svg> 